%TF.GenerationSoftware,KiCad,Pcbnew,(6.0.0)*%
%TF.CreationDate,2022-11-08T21:37:46+09:00*%
%TF.ProjectId,LED_MATRIX_ATOM_UNIT,4c45445f-4d41-4545-9249-585f41544f4d,rev?*%
%TF.SameCoordinates,Original*%
%TF.FileFunction,Legend,Bot*%
%TF.FilePolarity,Positive*%
%FSLAX46Y46*%
G04 Gerber Fmt 4.6, Leading zero omitted, Abs format (unit mm)*
G04 Created by KiCad (PCBNEW (6.0.0)) date 2022-11-08 21:37:46*
%MOMM*%
%LPD*%
G01*
G04 APERTURE LIST*
%ADD10C,0.120000*%
G04 APERTURE END LIST*
D10*
%TO.C,J4*%
X81390000Y-95290000D02*
X83510000Y-95290000D01*
X83510000Y-97350000D02*
X83510000Y-96290000D01*
X82450000Y-97350000D02*
X83510000Y-97350000D01*
X81390000Y-87230000D02*
X83510000Y-87230000D01*
X83510000Y-95290000D02*
X83510000Y-87230000D01*
X81390000Y-95290000D02*
X81390000Y-87230000D01*
%TO.C,J1*%
X124150000Y-87230000D02*
X122090000Y-87230000D01*
X124150000Y-87230000D02*
X124150000Y-97350000D01*
X121090000Y-87230000D02*
X120030000Y-87230000D01*
X122090000Y-87230000D02*
X122090000Y-89290000D01*
X124150000Y-97350000D02*
X120030000Y-97350000D01*
X120030000Y-87230000D02*
X120030000Y-88290000D01*
X122090000Y-89290000D02*
X120030000Y-89290000D01*
X120030000Y-89290000D02*
X120030000Y-97350000D01*
%TO.C,J2*%
X83510000Y-115610000D02*
X83510000Y-107550000D01*
X81390000Y-115610000D02*
X83510000Y-115610000D01*
X82450000Y-117670000D02*
X83510000Y-117670000D01*
X81390000Y-107550000D02*
X83510000Y-107550000D01*
X83510000Y-117670000D02*
X83510000Y-116610000D01*
X81390000Y-115610000D02*
X81390000Y-107550000D01*
%TO.C,kibuzzard-6369BB57*%
G36*
X111120112Y-90700762D02*
G01*
X113278688Y-90700762D01*
X113278688Y-92186238D01*
X111120112Y-92186238D01*
X111120112Y-91068215D01*
X111384695Y-91068215D01*
X111403745Y-91129175D01*
X111754265Y-91840375D01*
X111796810Y-91885460D01*
X111855865Y-91902605D01*
X111868565Y-91902605D01*
X111928890Y-91885460D01*
X111971435Y-91840375D01*
X112089423Y-91600980D01*
X112391805Y-91600980D01*
X112401965Y-91684518D01*
X112432445Y-91759871D01*
X112483245Y-91827040D01*
X112549144Y-91879604D01*
X112624921Y-91911142D01*
X112710575Y-91921655D01*
X112786775Y-91915023D01*
X112857895Y-91895126D01*
X112923935Y-91861965D01*
X112955685Y-91837835D01*
X112965845Y-91828945D01*
X113014105Y-91752745D01*
X112967115Y-91670195D01*
X112893455Y-91628285D01*
X112808365Y-91668925D01*
X112728990Y-91695595D01*
X112645170Y-91671465D01*
X112617865Y-91604790D01*
X112647710Y-91537480D01*
X112715655Y-91512715D01*
X112776615Y-91535575D01*
X112845830Y-91564785D01*
X112925840Y-91540655D01*
X112984895Y-91501920D01*
X112998865Y-91470805D01*
X112992515Y-91411433D01*
X112973465Y-91266335D01*
X112954098Y-91123460D01*
X112946795Y-91070755D01*
X112937905Y-91044085D01*
X112919490Y-91009795D01*
X112886470Y-90982490D01*
X112835035Y-90970425D01*
X112641995Y-90971695D01*
X112522615Y-90971695D01*
X112478165Y-90973600D01*
X112445145Y-90985665D01*
X112419428Y-91019955D01*
X112410855Y-91087265D01*
X112418793Y-91148542D01*
X112442605Y-91179975D01*
X112473720Y-91192040D01*
X112514995Y-91193945D01*
X112737245Y-91193945D01*
X112749945Y-91290465D01*
X112705495Y-91287925D01*
X112627743Y-91298014D01*
X112555353Y-91328283D01*
X112488325Y-91378730D01*
X112434703Y-91443782D01*
X112402529Y-91517866D01*
X112391805Y-91600980D01*
X112089423Y-91600980D01*
X112321955Y-91129175D01*
X112341005Y-91068215D01*
X112322272Y-91025670D01*
X112266075Y-90986935D01*
X112201940Y-90965345D01*
X112168285Y-90970425D01*
X112146695Y-90988205D01*
X112125740Y-91021860D01*
X112108754Y-91057420D01*
X112076845Y-91127270D01*
X112036046Y-91216964D01*
X111992390Y-91312055D01*
X111948575Y-91407146D01*
X111907300Y-91496840D01*
X111876026Y-91564626D01*
X111862215Y-91593995D01*
X111608215Y-91037735D01*
X111590435Y-90999635D01*
X111534555Y-90965345D01*
X111459625Y-90986935D01*
X111403427Y-91025670D01*
X111384695Y-91068215D01*
X111120112Y-91068215D01*
X111120112Y-90700762D01*
G37*
%TO.C,kibuzzard-6369B937*%
G36*
X83901282Y-115869167D02*
G01*
X87098718Y-115869167D01*
X87098718Y-117350833D01*
X83901282Y-117350833D01*
X83901282Y-116290595D01*
X84165865Y-116290595D01*
X84192535Y-116361080D01*
X84239525Y-116412515D01*
X84281435Y-116429660D01*
X84346205Y-116401720D01*
X84408435Y-116369335D01*
X84488445Y-116358540D01*
X84570360Y-116372828D01*
X84651005Y-116415690D01*
X84714505Y-116494430D01*
X84733555Y-116548564D01*
X84739905Y-116609365D01*
X84733555Y-116670166D01*
X84714505Y-116724300D01*
X84649735Y-116804310D01*
X84570677Y-116846220D01*
X84488445Y-116860190D01*
X84414150Y-116850030D01*
X84363985Y-116829710D01*
X84341125Y-116813200D01*
X84280165Y-116787800D01*
X84239208Y-116805580D01*
X84195075Y-116858920D01*
X84167135Y-116930040D01*
X84184280Y-116974490D01*
X84224285Y-117006240D01*
X84268100Y-117032910D01*
X84353825Y-117065930D01*
X84417484Y-117081170D01*
X84478920Y-117086250D01*
X84539562Y-117082281D01*
X84600840Y-117070375D01*
X84663387Y-117049103D01*
X84727840Y-117017035D01*
X84789911Y-116975443D01*
X84845315Y-116925595D01*
X84892781Y-116864000D01*
X84931040Y-116787165D01*
X84956281Y-116699059D01*
X84964695Y-116603650D01*
X84956440Y-116509194D01*
X84931675Y-116423945D01*
X84894051Y-116350285D01*
X84847220Y-116290595D01*
X85028195Y-116290595D01*
X85054865Y-116361080D01*
X85101855Y-116412515D01*
X85143765Y-116429660D01*
X85208535Y-116401720D01*
X85270765Y-116369335D01*
X85350775Y-116358540D01*
X85432690Y-116372828D01*
X85513335Y-116415690D01*
X85576835Y-116494430D01*
X85595885Y-116548564D01*
X85602235Y-116609365D01*
X85595885Y-116670166D01*
X85576835Y-116724300D01*
X85512065Y-116804310D01*
X85433007Y-116846220D01*
X85350775Y-116860190D01*
X85276480Y-116850030D01*
X85226315Y-116829710D01*
X85203455Y-116813200D01*
X85142495Y-116787800D01*
X85101537Y-116805580D01*
X85057405Y-116858920D01*
X85029465Y-116930040D01*
X85046610Y-116974490D01*
X85086615Y-117006240D01*
X85130430Y-117032910D01*
X85216155Y-117065930D01*
X85279814Y-117081170D01*
X85341250Y-117086250D01*
X85401892Y-117082281D01*
X85463170Y-117070375D01*
X85525717Y-117049103D01*
X85590170Y-117017035D01*
X85652241Y-116975443D01*
X85707645Y-116925595D01*
X85755111Y-116864000D01*
X85793370Y-116787165D01*
X85818611Y-116699059D01*
X85827025Y-116603650D01*
X85818770Y-116509194D01*
X85794005Y-116423945D01*
X85756381Y-116350285D01*
X85709550Y-116290595D01*
X85654464Y-116242176D01*
X85647753Y-116237890D01*
X85877825Y-116237890D01*
X85896875Y-116298850D01*
X86247395Y-117010050D01*
X86289940Y-117055135D01*
X86348995Y-117072280D01*
X86361695Y-117072280D01*
X86422020Y-117055135D01*
X86464565Y-117010050D01*
X86815085Y-116298850D01*
X86834135Y-116237890D01*
X86815403Y-116195345D01*
X86759205Y-116156610D01*
X86695070Y-116135020D01*
X86661415Y-116140100D01*
X86639825Y-116157880D01*
X86618870Y-116191535D01*
X86601884Y-116227095D01*
X86569975Y-116296945D01*
X86529176Y-116386639D01*
X86485520Y-116481730D01*
X86441705Y-116576821D01*
X86400430Y-116666515D01*
X86369156Y-116734301D01*
X86355345Y-116763670D01*
X86101345Y-116207410D01*
X86083565Y-116169310D01*
X86027685Y-116135020D01*
X85952755Y-116156610D01*
X85896557Y-116195345D01*
X85877825Y-116237890D01*
X85647753Y-116237890D01*
X85592075Y-116202330D01*
X85508961Y-116164230D01*
X85425564Y-116141370D01*
X85341885Y-116133750D01*
X85281719Y-116138354D01*
X85220600Y-116152165D01*
X85127255Y-116189630D01*
X85096775Y-116207410D01*
X85061215Y-116230270D01*
X85028195Y-116290595D01*
X84847220Y-116290595D01*
X84792134Y-116242176D01*
X84729745Y-116202330D01*
X84646631Y-116164230D01*
X84563234Y-116141370D01*
X84479555Y-116133750D01*
X84419389Y-116138354D01*
X84358270Y-116152165D01*
X84264925Y-116189630D01*
X84234445Y-116207410D01*
X84198885Y-116230270D01*
X84165865Y-116290595D01*
X83901282Y-116290595D01*
X83901282Y-115869167D01*
G37*
%TO.C,kibuzzard-636A4C56*%
G36*
X113780357Y-115014263D02*
G01*
X113780357Y-114632205D01*
X114057640Y-114632205D01*
X114063990Y-114692530D01*
X114078595Y-114725550D01*
X114105900Y-114743330D01*
X114173210Y-114749680D01*
X114880600Y-114749680D01*
X114924415Y-114747775D01*
X114958070Y-114735710D01*
X114983787Y-114702055D01*
X114992360Y-114636650D01*
X114984105Y-114572832D01*
X114959340Y-114538860D01*
X114924415Y-114526795D01*
X114878060Y-114524890D01*
X114424670Y-114524890D01*
X114439910Y-114508380D01*
X114479280Y-114419480D01*
X114434830Y-114342645D01*
X114356090Y-114302640D01*
X114281160Y-114348360D01*
X114093200Y-114556640D01*
X114090660Y-114560450D01*
X114057640Y-114632205D01*
X113780357Y-114632205D01*
X113780357Y-113884175D01*
X114044940Y-113884175D01*
X114056723Y-113979778D01*
X114092071Y-114062539D01*
X114150985Y-114132460D01*
X114224998Y-114185377D01*
X114305643Y-114217127D01*
X114392920Y-114227710D01*
X114463405Y-114219773D01*
X114530080Y-114195960D01*
X114588500Y-114161035D01*
X114634220Y-114119760D01*
X114704388Y-114030860D01*
X114747250Y-113952120D01*
X114759950Y-113920370D01*
X114766300Y-113920370D01*
X114766300Y-114152780D01*
X114778365Y-114227075D01*
X114815195Y-114256920D01*
X114879965Y-114264540D01*
X114944100Y-114256285D01*
X114977120Y-114228980D01*
X114992360Y-114150240D01*
X114992360Y-113653670D01*
X114958070Y-113574930D01*
X114878060Y-113541910D01*
X114812179Y-113553816D01*
X114751695Y-113589535D01*
X114698038Y-113642081D01*
X114652635Y-113704470D01*
X114611677Y-113771780D01*
X114571355Y-113839090D01*
X114528651Y-113901479D01*
X114480550Y-113954025D01*
X114428163Y-113989744D01*
X114372600Y-114001650D01*
X114340215Y-113992760D01*
X114305925Y-113973075D01*
X114281160Y-113939420D01*
X114269730Y-113875920D01*
X114299575Y-113805435D01*
X114358630Y-113771780D01*
X114387840Y-113766700D01*
X114395460Y-113766700D01*
X114437370Y-113764795D01*
X114469120Y-113752730D01*
X114491980Y-113718440D01*
X114499600Y-113653670D01*
X114487535Y-113582867D01*
X114451340Y-113548260D01*
X114386570Y-113541910D01*
X114301551Y-113552423D01*
X114222599Y-113583961D01*
X114149715Y-113636525D01*
X114091507Y-113706093D01*
X114056582Y-113788643D01*
X114044940Y-113884175D01*
X113780357Y-113884175D01*
X113780357Y-113013590D01*
X114047480Y-113013590D01*
X114055973Y-113104474D01*
X114081452Y-113189167D01*
X114123918Y-113267669D01*
X114183370Y-113339980D01*
X114255403Y-113400543D01*
X114335611Y-113443802D01*
X114423995Y-113469758D01*
X114520555Y-113478410D01*
X114617472Y-113470155D01*
X114706928Y-113445390D01*
X114788922Y-113404115D01*
X114863455Y-113346330D01*
X114925407Y-113276480D01*
X114969659Y-113199010D01*
X114996210Y-113113920D01*
X115005060Y-113021210D01*
X114996329Y-112928302D01*
X114970135Y-112842616D01*
X114926479Y-112764154D01*
X114865360Y-112692915D01*
X114792176Y-112633741D01*
X114712325Y-112591474D01*
X114625806Y-112566113D01*
X114532620Y-112557660D01*
X114430544Y-112567185D01*
X114335135Y-112595760D01*
X114250521Y-112640210D01*
X114180830Y-112697360D01*
X114125268Y-112765622D01*
X114083040Y-112843410D01*
X114056370Y-112927230D01*
X114047480Y-113013590D01*
X113780357Y-113013590D01*
X113780357Y-112363350D01*
X114058910Y-112363350D01*
X114070658Y-112434152D01*
X114105900Y-112468760D01*
X114171940Y-112475110D01*
X114878060Y-112475110D01*
X114922510Y-112473205D01*
X114955530Y-112461140D01*
X114981248Y-112427485D01*
X114989820Y-112362080D01*
X114977755Y-112291595D01*
X114941560Y-112257940D01*
X114876790Y-112250320D01*
X114170670Y-112250320D01*
X114126855Y-112252225D01*
X114093200Y-112264290D01*
X114067483Y-112297945D01*
X114058910Y-112363350D01*
X113780357Y-112363350D01*
X113780357Y-111985737D01*
X115269643Y-111985737D01*
X115269643Y-115014263D01*
X113780357Y-115014263D01*
G37*
G36*
X114596896Y-112790564D02*
G01*
X114658068Y-112814906D01*
X114709785Y-112855475D01*
X114762649Y-112932786D01*
X114780270Y-113018670D01*
X114763125Y-113104395D01*
X114711690Y-113181230D01*
X114660749Y-113221447D01*
X114599366Y-113245577D01*
X114527540Y-113253620D01*
X114455573Y-113245506D01*
X114393767Y-113221164D01*
X114342120Y-113180595D01*
X114289732Y-113103284D01*
X114272270Y-113017400D01*
X114289891Y-112931675D01*
X114342755Y-112854840D01*
X114394472Y-112814623D01*
X114455644Y-112790493D01*
X114526270Y-112782450D01*
X114596896Y-112790564D01*
G37*
%TO.C,kibuzzard-636A4C45*%
G36*
X110596261Y-112654039D02*
G01*
X110657433Y-112678381D01*
X110709150Y-112718950D01*
X110762014Y-112796261D01*
X110779635Y-112882145D01*
X110762490Y-112967870D01*
X110711055Y-113044705D01*
X110660114Y-113084922D01*
X110598731Y-113109052D01*
X110526905Y-113117095D01*
X110454938Y-113108981D01*
X110393132Y-113084639D01*
X110341485Y-113044070D01*
X110289097Y-112966759D01*
X110271635Y-112880875D01*
X110289256Y-112795150D01*
X110342120Y-112718315D01*
X110393837Y-112678098D01*
X110455009Y-112653968D01*
X110525635Y-112645925D01*
X110596261Y-112654039D01*
G37*
G36*
X109779722Y-115150788D02*
G01*
X109779722Y-114529335D01*
X110044305Y-114529335D01*
X110054183Y-114626137D01*
X110083816Y-114708264D01*
X110133205Y-114775715D01*
X110194941Y-114825809D01*
X110261616Y-114855866D01*
X110333230Y-114865885D01*
X110400469Y-114854878D01*
X110454021Y-114821858D01*
X110493885Y-114766825D01*
X110502775Y-114766825D01*
X110530080Y-114804290D01*
X110571355Y-114844295D01*
X110628505Y-114875728D01*
X110693275Y-114886205D01*
X110778577Y-114874916D01*
X110853295Y-114841049D01*
X110917430Y-114784605D01*
X110966466Y-114711086D01*
X110995888Y-114625996D01*
X111005695Y-114529335D01*
X110995817Y-114433379D01*
X110966184Y-114348713D01*
X110916795Y-114275335D01*
X110877108Y-114239457D01*
X110826625Y-114208025D01*
X110793605Y-114194055D01*
X110780905Y-114191515D01*
X110712325Y-114177545D01*
X110657080Y-114208660D01*
X110638665Y-114302005D01*
X110651365Y-114369315D01*
X110717405Y-114407415D01*
X110778365Y-114477265D01*
X110785985Y-114530605D01*
X110779159Y-114589025D01*
X110758680Y-114629665D01*
X110697085Y-114661415D01*
X110636760Y-114630300D01*
X110610725Y-114556640D01*
X110608185Y-114498855D01*
X110595485Y-114465835D01*
X110562783Y-114440117D01*
X110497695Y-114431545D01*
X110426893Y-114443292D01*
X110392285Y-114478535D01*
X110385935Y-114544575D01*
X110373552Y-114616965D01*
X110336405Y-114641095D01*
X110285605Y-114615695D01*
X110261475Y-114545210D01*
X110276715Y-114473455D01*
X110307195Y-114440435D01*
X110322435Y-114432815D01*
X110370060Y-114397255D01*
X110385935Y-114348995D01*
X110363075Y-114279145D01*
X110323387Y-114231520D01*
X110277985Y-114215645D01*
X110191625Y-114244855D01*
X110151620Y-114272795D01*
X110101455Y-114325500D01*
X110062085Y-114409320D01*
X110048750Y-114466311D01*
X110044305Y-114529335D01*
X109779722Y-114529335D01*
X109779722Y-113757175D01*
X110044305Y-113757175D01*
X110054183Y-113853977D01*
X110083816Y-113936104D01*
X110133205Y-114003555D01*
X110194941Y-114053649D01*
X110261616Y-114083706D01*
X110333230Y-114093725D01*
X110400469Y-114082718D01*
X110454021Y-114049698D01*
X110493885Y-113994665D01*
X110502775Y-113994665D01*
X110530080Y-114032130D01*
X110571355Y-114072135D01*
X110628505Y-114103568D01*
X110693275Y-114114045D01*
X110778577Y-114102756D01*
X110853295Y-114068889D01*
X110917430Y-114012445D01*
X110966466Y-113938926D01*
X110995888Y-113853836D01*
X111005695Y-113757175D01*
X110995817Y-113661219D01*
X110966184Y-113576553D01*
X110916795Y-113503175D01*
X110877108Y-113467297D01*
X110826625Y-113435865D01*
X110793605Y-113421895D01*
X110780905Y-113419355D01*
X110712325Y-113405385D01*
X110657080Y-113436500D01*
X110638665Y-113529845D01*
X110651365Y-113597155D01*
X110717405Y-113635255D01*
X110778365Y-113705105D01*
X110785985Y-113758445D01*
X110779159Y-113816865D01*
X110758680Y-113857505D01*
X110697085Y-113889255D01*
X110636760Y-113858140D01*
X110610725Y-113784480D01*
X110608185Y-113726695D01*
X110595485Y-113693675D01*
X110562783Y-113667957D01*
X110497695Y-113659385D01*
X110426893Y-113671132D01*
X110392285Y-113706375D01*
X110385935Y-113772415D01*
X110373552Y-113844805D01*
X110336405Y-113868935D01*
X110285605Y-113843535D01*
X110261475Y-113773050D01*
X110276715Y-113701295D01*
X110307195Y-113668275D01*
X110322435Y-113660655D01*
X110370060Y-113625095D01*
X110385935Y-113576835D01*
X110363075Y-113506985D01*
X110323387Y-113459360D01*
X110277985Y-113443485D01*
X110191625Y-113472695D01*
X110151620Y-113500635D01*
X110101455Y-113553340D01*
X110062085Y-113637160D01*
X110048750Y-113694151D01*
X110044305Y-113757175D01*
X109779722Y-113757175D01*
X109779722Y-112877065D01*
X110046845Y-112877065D01*
X110055338Y-112967949D01*
X110080817Y-113052642D01*
X110123283Y-113131144D01*
X110182735Y-113203455D01*
X110254768Y-113264018D01*
X110334976Y-113307277D01*
X110423360Y-113333233D01*
X110519920Y-113341885D01*
X110616837Y-113333630D01*
X110706293Y-113308865D01*
X110788287Y-113267590D01*
X110862820Y-113209805D01*
X110924772Y-113139955D01*
X110969024Y-113062485D01*
X110995575Y-112977395D01*
X111004425Y-112884685D01*
X110995694Y-112791777D01*
X110969500Y-112706091D01*
X110925844Y-112627629D01*
X110864725Y-112556390D01*
X110791541Y-112497216D01*
X110711690Y-112454949D01*
X110625171Y-112429588D01*
X110531985Y-112421135D01*
X110429909Y-112430660D01*
X110334500Y-112459235D01*
X110249886Y-112503685D01*
X110180195Y-112560835D01*
X110124633Y-112629097D01*
X110082405Y-112706885D01*
X110055735Y-112790705D01*
X110046845Y-112877065D01*
X109779722Y-112877065D01*
X109779722Y-112226825D01*
X110058275Y-112226825D01*
X110070022Y-112297627D01*
X110105265Y-112332235D01*
X110171305Y-112338585D01*
X110877425Y-112338585D01*
X110921875Y-112336680D01*
X110954895Y-112324615D01*
X110980613Y-112290960D01*
X110989185Y-112225555D01*
X110977120Y-112155070D01*
X110940925Y-112121415D01*
X110876155Y-112113795D01*
X110170035Y-112113795D01*
X110126220Y-112115700D01*
X110092565Y-112127765D01*
X110066848Y-112161420D01*
X110058275Y-112226825D01*
X109779722Y-112226825D01*
X109779722Y-111849212D01*
X111270278Y-111849212D01*
X111270278Y-115150788D01*
X109779722Y-115150788D01*
G37*
%TO.C,kibuzzard-6369B92E*%
G36*
X86550290Y-114848760D02*
G01*
X86427100Y-114848760D01*
X86340105Y-114831774D01*
X86262000Y-114780815D01*
X86206755Y-114704139D01*
X86188340Y-114610000D01*
X86206279Y-114515544D01*
X86260095Y-114437915D01*
X86338041Y-114386004D01*
X86428370Y-114368700D01*
X86550290Y-114368700D01*
X86550290Y-114848760D01*
G37*
G36*
X83960337Y-113878057D02*
G01*
X87039663Y-113878057D01*
X87039663Y-115341943D01*
X83960337Y-115341943D01*
X83960337Y-114965600D01*
X84224920Y-114965600D01*
X84226825Y-115009415D01*
X84238890Y-115043070D01*
X84272545Y-115068787D01*
X84337950Y-115077360D01*
X84401767Y-115069105D01*
X84435740Y-115044340D01*
X84447805Y-115009415D01*
X84449710Y-114963060D01*
X84741810Y-114963060D01*
X84743715Y-115007510D01*
X84755780Y-115040530D01*
X84789435Y-115066248D01*
X84854840Y-115074820D01*
X84923420Y-115067200D01*
X84955170Y-115043070D01*
X85044987Y-114923408D01*
X85123939Y-114818421D01*
X85192025Y-114728110D01*
X85249246Y-114652474D01*
X85295601Y-114591514D01*
X85331090Y-114545230D01*
X85331090Y-114963060D01*
X85332995Y-115007510D01*
X85345060Y-115040530D01*
X85378715Y-115066248D01*
X85444120Y-115074820D01*
X85507620Y-115066248D01*
X85540640Y-115040530D01*
X85552705Y-115006240D01*
X85554556Y-114963060D01*
X85656210Y-114963060D01*
X85658115Y-115007510D01*
X85670180Y-115040530D01*
X85703835Y-115066248D01*
X85769240Y-115074820D01*
X85839725Y-115062755D01*
X85873380Y-115026560D01*
X85881000Y-114961790D01*
X85881000Y-114603015D01*
X85963550Y-114603015D01*
X85972083Y-114696400D01*
X85997681Y-114782879D01*
X86040345Y-114862452D01*
X86100075Y-114935120D01*
X86171949Y-114995683D01*
X86251046Y-115038943D01*
X86337367Y-115064898D01*
X86430910Y-115073550D01*
X86663320Y-115073550D01*
X86726185Y-115065613D01*
X86759840Y-115041800D01*
X86775080Y-114960520D01*
X86775080Y-114254400D01*
X86773175Y-114209950D01*
X86761110Y-114176930D01*
X86727455Y-114151213D01*
X86662050Y-114142640D01*
X86427100Y-114143910D01*
X86337803Y-114152205D01*
X86254063Y-114177089D01*
X86175878Y-114218562D01*
X86103250Y-114276625D01*
X86042131Y-114346792D01*
X85998475Y-114424580D01*
X85972281Y-114509988D01*
X85963550Y-114603015D01*
X85881000Y-114603015D01*
X85881000Y-114255670D01*
X85879095Y-114211855D01*
X85867030Y-114178200D01*
X85833375Y-114152483D01*
X85767970Y-114143910D01*
X85697167Y-114155658D01*
X85662560Y-114190900D01*
X85656210Y-114256940D01*
X85656210Y-114963060D01*
X85554556Y-114963060D01*
X85554610Y-114961790D01*
X85554610Y-114253130D01*
X85542545Y-114182645D01*
X85506350Y-114152800D01*
X85444120Y-114145180D01*
X85383795Y-114152165D01*
X85352680Y-114168040D01*
X85323470Y-114201060D01*
X85239086Y-114315677D01*
X85164579Y-114416537D01*
X85099950Y-114503638D01*
X85045199Y-114576980D01*
X85000326Y-114636564D01*
X84965330Y-114682390D01*
X84965330Y-114253130D01*
X84953265Y-114182645D01*
X84917070Y-114152800D01*
X84856745Y-114145180D01*
X84798325Y-114151530D01*
X84765305Y-114166770D01*
X84749430Y-114193440D01*
X84741810Y-114258210D01*
X84741810Y-114963060D01*
X84449710Y-114963060D01*
X84449710Y-114509670D01*
X84466220Y-114524910D01*
X84555120Y-114564280D01*
X84631955Y-114519830D01*
X84671960Y-114441090D01*
X84626240Y-114366160D01*
X84417960Y-114178200D01*
X84414150Y-114175660D01*
X84342395Y-114142640D01*
X84282070Y-114148990D01*
X84249050Y-114163595D01*
X84231270Y-114190900D01*
X84224920Y-114258210D01*
X84224920Y-114965600D01*
X83960337Y-114965600D01*
X83960337Y-113878057D01*
G37*
%TO.C,J3*%
X122090000Y-107550000D02*
X122090000Y-109610000D01*
X120030000Y-109610000D02*
X120030000Y-117670000D01*
X124150000Y-107550000D02*
X122090000Y-107550000D01*
X121090000Y-107550000D02*
X120030000Y-107550000D01*
X124150000Y-107550000D02*
X124150000Y-117670000D01*
X124150000Y-117670000D02*
X120030000Y-117670000D01*
X120030000Y-107550000D02*
X120030000Y-108610000D01*
X122090000Y-109610000D02*
X120030000Y-109610000D01*
%TO.C,kibuzzard-6369B912*%
G36*
X83909537Y-107865357D02*
G01*
X87090463Y-107865357D01*
X87090463Y-109354643D01*
X83909537Y-109354643D01*
X83909537Y-108605555D01*
X84174120Y-108605555D01*
X84182653Y-108698940D01*
X84208251Y-108785419D01*
X84250915Y-108864992D01*
X84310645Y-108937660D01*
X84382519Y-108998223D01*
X84461616Y-109041483D01*
X84547937Y-109067438D01*
X84641480Y-109076090D01*
X84873890Y-109076090D01*
X84936755Y-109068153D01*
X84970410Y-109044340D01*
X84985174Y-108965600D01*
X85087250Y-108965600D01*
X85089155Y-109010050D01*
X85101220Y-109043070D01*
X85134875Y-109068788D01*
X85200280Y-109077360D01*
X85268860Y-109069740D01*
X85300610Y-109045610D01*
X85390427Y-108925948D01*
X85469379Y-108820961D01*
X85537465Y-108730650D01*
X85594686Y-108655014D01*
X85641041Y-108594054D01*
X85676530Y-108547770D01*
X85676530Y-108965600D01*
X85678435Y-109010050D01*
X85690500Y-109043070D01*
X85724155Y-109068788D01*
X85789560Y-109077360D01*
X85853060Y-109068788D01*
X85886080Y-109043070D01*
X85898145Y-109008780D01*
X85900050Y-108964330D01*
X85900050Y-108902100D01*
X86001650Y-108902100D01*
X86037210Y-108979570D01*
X86097217Y-109027909D01*
X86170560Y-109062437D01*
X86257238Y-109083154D01*
X86357250Y-109090060D01*
X86448769Y-109081130D01*
X86534097Y-109054341D01*
X86613234Y-109009693D01*
X86686180Y-108947185D01*
X86747299Y-108872057D01*
X86790955Y-108789546D01*
X86817149Y-108699654D01*
X86825880Y-108602380D01*
X86816990Y-108505582D01*
X86790320Y-108417119D01*
X86745870Y-108336990D01*
X86683640Y-108265195D01*
X86609345Y-108206021D01*
X86528700Y-108163754D01*
X86441705Y-108138393D01*
X86348360Y-108129940D01*
X86250288Y-108140947D01*
X86155884Y-108173967D01*
X86065150Y-108229000D01*
X86030860Y-108285515D01*
X86060070Y-108357270D01*
X86107377Y-108407753D01*
X86150240Y-108424580D01*
X86227710Y-108389655D01*
X86286130Y-108363461D01*
X86354710Y-108354730D01*
X86445833Y-108371716D01*
X86526160Y-108422675D01*
X86582358Y-108501097D01*
X86601090Y-108600475D01*
X86592623Y-108670043D01*
X86567223Y-108732273D01*
X86524890Y-108787165D01*
X86443610Y-108844791D01*
X86352170Y-108864000D01*
X86285812Y-108858285D01*
X86226440Y-108841140D01*
X86226440Y-108702710D01*
X86326770Y-108702710D01*
X86382650Y-108692550D01*
X86404240Y-108662705D01*
X86409320Y-108609365D01*
X86403605Y-108555390D01*
X86382650Y-108527450D01*
X86321690Y-108516020D01*
X86098170Y-108516020D01*
X86014350Y-108551580D01*
X86001650Y-108622700D01*
X86001650Y-108902100D01*
X85900050Y-108902100D01*
X85900050Y-108255670D01*
X85887985Y-108185185D01*
X85851790Y-108155340D01*
X85789560Y-108147720D01*
X85729235Y-108154705D01*
X85698120Y-108170580D01*
X85668910Y-108203600D01*
X85584526Y-108318218D01*
X85510019Y-108419077D01*
X85445390Y-108506178D01*
X85390639Y-108579520D01*
X85345766Y-108639104D01*
X85310770Y-108684930D01*
X85310770Y-108255670D01*
X85298705Y-108185185D01*
X85262510Y-108155340D01*
X85202185Y-108147720D01*
X85143765Y-108154070D01*
X85110745Y-108169310D01*
X85094870Y-108195980D01*
X85087250Y-108260750D01*
X85087250Y-108965600D01*
X84985174Y-108965600D01*
X84985650Y-108963060D01*
X84985650Y-108256940D01*
X84983745Y-108212490D01*
X84971680Y-108179470D01*
X84938025Y-108153752D01*
X84872620Y-108145180D01*
X84637670Y-108146450D01*
X84548373Y-108154745D01*
X84464633Y-108179629D01*
X84386448Y-108221102D01*
X84313820Y-108279165D01*
X84252701Y-108349332D01*
X84209045Y-108427120D01*
X84182851Y-108512528D01*
X84174120Y-108605555D01*
X83909537Y-108605555D01*
X83909537Y-107865357D01*
G37*
G36*
X84760860Y-108851300D02*
G01*
X84637670Y-108851300D01*
X84550675Y-108834314D01*
X84472570Y-108783355D01*
X84417325Y-108706679D01*
X84398910Y-108612540D01*
X84416849Y-108518084D01*
X84470665Y-108440455D01*
X84548611Y-108388544D01*
X84638940Y-108371240D01*
X84760860Y-108371240D01*
X84760860Y-108851300D01*
G37*
%TO.C,kibuzzard-636A4C3A*%
G36*
X108766300Y-114362330D02*
G01*
X108749314Y-114449325D01*
X108698355Y-114527430D01*
X108621679Y-114582675D01*
X108527540Y-114601090D01*
X108433084Y-114583151D01*
X108355455Y-114529335D01*
X108303544Y-114451389D01*
X108286240Y-114361060D01*
X108286240Y-114239140D01*
X108766300Y-114239140D01*
X108766300Y-114362330D01*
G37*
G36*
X107780357Y-115090463D02*
G01*
X107780357Y-114127380D01*
X108060180Y-114127380D01*
X108061450Y-114362330D01*
X108069745Y-114451627D01*
X108094629Y-114535367D01*
X108136102Y-114613552D01*
X108194165Y-114686180D01*
X108264332Y-114747299D01*
X108342120Y-114790955D01*
X108427528Y-114817149D01*
X108520555Y-114825880D01*
X108613940Y-114817347D01*
X108700419Y-114791749D01*
X108779992Y-114749085D01*
X108852660Y-114689355D01*
X108913223Y-114617481D01*
X108956483Y-114538384D01*
X108982438Y-114452063D01*
X108991090Y-114358520D01*
X108991090Y-114126110D01*
X108983153Y-114063245D01*
X108959340Y-114029590D01*
X108878060Y-114014350D01*
X108171940Y-114014350D01*
X108127490Y-114016255D01*
X108094470Y-114028320D01*
X108068752Y-114061975D01*
X108060180Y-114127380D01*
X107780357Y-114127380D01*
X107780357Y-113797815D01*
X108062720Y-113797815D01*
X108069070Y-113856235D01*
X108084310Y-113889255D01*
X108110980Y-113905130D01*
X108175750Y-113912750D01*
X108880600Y-113912750D01*
X108925050Y-113910845D01*
X108958070Y-113898780D01*
X108983788Y-113865125D01*
X108992360Y-113799720D01*
X108984740Y-113731140D01*
X108960610Y-113699390D01*
X108840948Y-113609573D01*
X108735961Y-113530621D01*
X108645650Y-113462535D01*
X108570014Y-113405314D01*
X108509054Y-113358959D01*
X108462770Y-113323470D01*
X108880600Y-113323470D01*
X108925050Y-113321565D01*
X108958070Y-113309500D01*
X108983788Y-113275845D01*
X108992360Y-113210440D01*
X108983788Y-113146940D01*
X108958070Y-113113920D01*
X108923780Y-113101855D01*
X108879330Y-113099950D01*
X108170670Y-113099950D01*
X108100185Y-113112015D01*
X108070340Y-113148210D01*
X108062720Y-113210440D01*
X108069705Y-113270765D01*
X108085580Y-113301880D01*
X108118600Y-113331090D01*
X108233218Y-113415474D01*
X108334077Y-113489981D01*
X108421178Y-113554610D01*
X108494520Y-113609361D01*
X108554104Y-113654234D01*
X108599930Y-113689230D01*
X108170670Y-113689230D01*
X108100185Y-113701295D01*
X108070340Y-113737490D01*
X108062720Y-113797815D01*
X107780357Y-113797815D01*
X107780357Y-112651640D01*
X108044940Y-112651640D01*
X108055947Y-112749712D01*
X108088967Y-112844116D01*
X108144000Y-112934850D01*
X108200515Y-112969140D01*
X108272270Y-112939930D01*
X108322753Y-112892623D01*
X108339580Y-112849760D01*
X108304655Y-112772290D01*
X108278461Y-112713870D01*
X108269730Y-112645290D01*
X108286716Y-112554167D01*
X108337675Y-112473840D01*
X108416097Y-112417642D01*
X108515475Y-112398910D01*
X108585043Y-112407377D01*
X108647273Y-112432777D01*
X108702165Y-112475110D01*
X108759791Y-112556390D01*
X108779000Y-112647830D01*
X108773285Y-112714188D01*
X108756140Y-112773560D01*
X108617710Y-112773560D01*
X108617710Y-112673230D01*
X108607550Y-112617350D01*
X108577705Y-112595760D01*
X108524365Y-112590680D01*
X108470390Y-112596395D01*
X108442450Y-112617350D01*
X108431020Y-112678310D01*
X108431020Y-112901830D01*
X108466580Y-112985650D01*
X108537700Y-112998350D01*
X108817100Y-112998350D01*
X108894570Y-112962790D01*
X108942909Y-112902783D01*
X108977437Y-112829440D01*
X108998154Y-112742762D01*
X109005060Y-112642750D01*
X108996130Y-112551231D01*
X108969341Y-112465903D01*
X108924693Y-112386766D01*
X108862185Y-112313820D01*
X108787057Y-112252701D01*
X108704546Y-112209045D01*
X108614654Y-112182851D01*
X108517380Y-112174120D01*
X108420582Y-112183010D01*
X108332119Y-112209680D01*
X108251990Y-112254130D01*
X108180195Y-112316360D01*
X108121021Y-112390655D01*
X108078754Y-112471300D01*
X108053393Y-112558295D01*
X108044940Y-112651640D01*
X107780357Y-112651640D01*
X107780357Y-111909537D01*
X109269643Y-111909537D01*
X109269643Y-115090463D01*
X107780357Y-115090463D01*
G37*
%TO.C,kibuzzard-636A4C4F*%
G36*
X112595626Y-112702934D02*
G01*
X112656798Y-112727276D01*
X112708515Y-112767845D01*
X112761379Y-112845156D01*
X112779000Y-112931040D01*
X112761855Y-113016765D01*
X112710420Y-113093600D01*
X112659479Y-113133817D01*
X112598096Y-113157947D01*
X112526270Y-113165990D01*
X112454303Y-113157876D01*
X112392497Y-113133534D01*
X112340850Y-113092965D01*
X112288463Y-113015654D01*
X112271000Y-112929770D01*
X112288621Y-112844045D01*
X112341485Y-112767210D01*
X112393202Y-112726993D01*
X112454374Y-112702863D01*
X112525000Y-112694820D01*
X112595626Y-112702934D01*
G37*
G36*
X111779087Y-115101893D02*
G01*
X111779087Y-114394080D01*
X112055100Y-114394080D01*
X112056370Y-114587120D01*
X112056370Y-114706500D01*
X112058275Y-114750950D01*
X112070340Y-114783970D01*
X112104630Y-114809688D01*
X112171940Y-114818260D01*
X112233218Y-114810322D01*
X112264650Y-114786510D01*
X112276715Y-114755395D01*
X112278620Y-114714120D01*
X112278620Y-114491870D01*
X112375140Y-114479170D01*
X112372600Y-114523620D01*
X112382689Y-114601372D01*
X112412958Y-114673762D01*
X112463405Y-114740790D01*
X112528457Y-114794412D01*
X112602541Y-114826586D01*
X112685655Y-114837310D01*
X112769193Y-114827150D01*
X112844546Y-114796670D01*
X112911715Y-114745870D01*
X112964279Y-114679971D01*
X112995817Y-114604194D01*
X113006330Y-114518540D01*
X112999698Y-114442340D01*
X112979801Y-114371220D01*
X112946640Y-114305180D01*
X112922510Y-114273430D01*
X112913620Y-114263270D01*
X112837420Y-114215010D01*
X112754870Y-114262000D01*
X112712960Y-114335660D01*
X112753600Y-114420750D01*
X112780270Y-114500125D01*
X112756140Y-114583945D01*
X112689465Y-114611250D01*
X112622155Y-114581405D01*
X112597390Y-114513460D01*
X112620250Y-114452500D01*
X112649460Y-114383285D01*
X112625330Y-114303275D01*
X112586595Y-114244220D01*
X112555480Y-114230250D01*
X112496108Y-114236600D01*
X112351010Y-114255650D01*
X112208135Y-114275017D01*
X112155430Y-114282320D01*
X112128760Y-114291210D01*
X112094470Y-114309625D01*
X112067165Y-114342645D01*
X112055100Y-114394080D01*
X111779087Y-114394080D01*
X111779087Y-113796545D01*
X112043670Y-113796545D01*
X112055453Y-113892148D01*
X112090801Y-113974909D01*
X112149715Y-114044830D01*
X112223728Y-114097747D01*
X112304373Y-114129497D01*
X112391650Y-114140080D01*
X112462135Y-114132143D01*
X112528810Y-114108330D01*
X112587230Y-114073405D01*
X112632950Y-114032130D01*
X112703118Y-113943230D01*
X112745980Y-113864490D01*
X112758680Y-113832740D01*
X112765030Y-113832740D01*
X112765030Y-114065150D01*
X112777095Y-114139445D01*
X112813925Y-114169290D01*
X112878695Y-114176910D01*
X112942830Y-114168655D01*
X112975850Y-114141350D01*
X112991090Y-114062610D01*
X112991090Y-113566040D01*
X112956800Y-113487300D01*
X112876790Y-113454280D01*
X112810909Y-113466186D01*
X112750425Y-113501905D01*
X112696768Y-113554451D01*
X112651365Y-113616840D01*
X112610408Y-113684150D01*
X112570085Y-113751460D01*
X112527381Y-113813849D01*
X112479280Y-113866395D01*
X112426893Y-113902114D01*
X112371330Y-113914020D01*
X112338945Y-113905130D01*
X112304655Y-113885445D01*
X112279890Y-113851790D01*
X112268460Y-113788290D01*
X112298305Y-113717805D01*
X112357360Y-113684150D01*
X112386570Y-113679070D01*
X112394190Y-113679070D01*
X112436100Y-113677165D01*
X112467850Y-113665100D01*
X112490710Y-113630810D01*
X112498330Y-113566040D01*
X112486265Y-113495237D01*
X112450070Y-113460630D01*
X112385300Y-113454280D01*
X112300281Y-113464793D01*
X112221329Y-113496331D01*
X112148445Y-113548895D01*
X112090237Y-113618463D01*
X112055312Y-113701013D01*
X112043670Y-113796545D01*
X111779087Y-113796545D01*
X111779087Y-112925960D01*
X112046210Y-112925960D01*
X112054703Y-113016844D01*
X112080183Y-113101537D01*
X112122648Y-113180039D01*
X112182100Y-113252350D01*
X112254133Y-113312913D01*
X112334341Y-113356172D01*
X112422725Y-113382128D01*
X112519285Y-113390780D01*
X112616202Y-113382525D01*
X112705658Y-113357760D01*
X112787652Y-113316485D01*
X112862185Y-113258700D01*
X112924137Y-113188850D01*
X112968389Y-113111380D01*
X112994940Y-113026290D01*
X113003790Y-112933580D01*
X112995059Y-112840672D01*
X112968865Y-112754986D01*
X112925209Y-112676524D01*
X112864090Y-112605285D01*
X112790906Y-112546111D01*
X112711055Y-112503844D01*
X112624536Y-112478483D01*
X112531350Y-112470030D01*
X112429274Y-112479555D01*
X112333865Y-112508130D01*
X112249251Y-112552580D01*
X112179560Y-112609730D01*
X112123998Y-112677992D01*
X112081770Y-112755780D01*
X112055100Y-112839600D01*
X112046210Y-112925960D01*
X111779087Y-112925960D01*
X111779087Y-112275720D01*
X112057640Y-112275720D01*
X112069388Y-112346522D01*
X112104630Y-112381130D01*
X112170670Y-112387480D01*
X112876790Y-112387480D01*
X112921240Y-112385575D01*
X112954260Y-112373510D01*
X112979978Y-112339855D01*
X112988550Y-112274450D01*
X112976485Y-112203965D01*
X112940290Y-112170310D01*
X112875520Y-112162690D01*
X112169400Y-112162690D01*
X112125585Y-112164595D01*
X112091930Y-112176660D01*
X112066213Y-112210315D01*
X112057640Y-112275720D01*
X111779087Y-112275720D01*
X111779087Y-111898107D01*
X113270913Y-111898107D01*
X113270913Y-115101893D01*
X111779087Y-115101893D01*
G37*
%TO.C,kibuzzard-6369B927*%
G36*
X84465797Y-111865992D02*
G01*
X86534203Y-111865992D01*
X86534203Y-113354008D01*
X84465797Y-113354008D01*
X84465797Y-112779545D01*
X84730380Y-112779545D01*
X84738635Y-112857174D01*
X84763400Y-112924960D01*
X84801500Y-112980681D01*
X84849760Y-113022115D01*
X84919892Y-113059509D01*
X84993129Y-113081946D01*
X85069470Y-113089425D01*
X85127572Y-113085774D01*
X85182500Y-113074820D01*
X85268860Y-113038625D01*
X85326010Y-112998620D01*
X85362840Y-112959885D01*
X85374270Y-112945915D01*
X85407290Y-112872890D01*
X85393637Y-112835266D01*
X85352680Y-112787165D01*
X85285370Y-112756685D01*
X85242825Y-112772560D01*
X85186310Y-112820185D01*
X85135510Y-112861460D01*
X85074550Y-112881145D01*
X85008933Y-112870421D01*
X84969563Y-112838247D01*
X84956440Y-112784625D01*
X84988825Y-112735730D01*
X85069470Y-112707155D01*
X85119635Y-112695566D01*
X85173610Y-112678580D01*
X85227585Y-112657149D01*
X85277750Y-112632225D01*
X85322041Y-112597776D01*
X85358395Y-112547770D01*
X85382684Y-112484111D01*
X85390780Y-112408705D01*
X85381537Y-112337373D01*
X85362931Y-112293770D01*
X85470790Y-112293770D01*
X85497460Y-112364255D01*
X85544450Y-112415690D01*
X85586360Y-112432835D01*
X85651130Y-112404895D01*
X85713360Y-112372510D01*
X85793370Y-112361715D01*
X85875285Y-112376002D01*
X85955930Y-112418865D01*
X86019430Y-112497605D01*
X86038480Y-112551739D01*
X86044830Y-112612540D01*
X86038480Y-112673341D01*
X86019430Y-112727475D01*
X85954660Y-112807485D01*
X85875602Y-112849395D01*
X85793370Y-112863365D01*
X85719075Y-112853205D01*
X85668910Y-112832885D01*
X85646050Y-112816375D01*
X85585090Y-112790975D01*
X85544132Y-112808755D01*
X85500000Y-112862095D01*
X85472060Y-112933215D01*
X85489205Y-112977665D01*
X85529210Y-113009415D01*
X85573025Y-113036085D01*
X85658750Y-113069105D01*
X85722409Y-113084345D01*
X85783845Y-113089425D01*
X85844487Y-113085456D01*
X85905765Y-113073550D01*
X85968312Y-113052278D01*
X86032765Y-113020210D01*
X86094836Y-112978618D01*
X86150240Y-112928770D01*
X86197706Y-112867175D01*
X86235965Y-112790340D01*
X86261206Y-112702234D01*
X86269620Y-112606825D01*
X86261365Y-112512369D01*
X86236600Y-112427120D01*
X86198976Y-112353460D01*
X86152145Y-112293770D01*
X86097059Y-112245351D01*
X86034670Y-112205505D01*
X85951556Y-112167405D01*
X85868159Y-112144545D01*
X85784480Y-112136925D01*
X85724314Y-112141529D01*
X85663195Y-112155340D01*
X85569850Y-112192805D01*
X85539370Y-112210585D01*
X85503810Y-112233445D01*
X85470790Y-112293770D01*
X85362931Y-112293770D01*
X85353809Y-112272392D01*
X85307595Y-112213760D01*
X85245436Y-112167546D01*
X85169871Y-112139818D01*
X85080900Y-112130575D01*
X85008034Y-112135496D01*
X84941835Y-112150260D01*
X84854840Y-112190265D01*
X84823090Y-112214395D01*
X84783720Y-112276625D01*
X84814200Y-112346475D01*
X84858015Y-112394100D01*
X84903100Y-112409975D01*
X84969140Y-112384575D01*
X84983745Y-112371875D01*
X85003430Y-112355365D01*
X85071375Y-112338855D01*
X85139955Y-112358540D01*
X85167260Y-112413150D01*
X85134875Y-112469665D01*
X85054230Y-112498875D01*
X85003747Y-112508559D01*
X84948820Y-112522370D01*
X84893892Y-112539991D01*
X84843410Y-112561105D01*
X84799119Y-112592379D01*
X84762765Y-112640480D01*
X84738476Y-112703504D01*
X84730380Y-112779545D01*
X84465797Y-112779545D01*
X84465797Y-111865992D01*
G37*
%TO.C,kibuzzard-636A3261*%
G36*
X110789912Y-93236317D02*
G01*
X113608888Y-93236317D01*
X113608888Y-94730683D01*
X110789912Y-94730683D01*
X110789912Y-94145425D01*
X111054495Y-94145425D01*
X111064655Y-94228963D01*
X111095135Y-94304316D01*
X111145935Y-94371485D01*
X111211834Y-94424049D01*
X111287611Y-94455587D01*
X111373265Y-94466100D01*
X111449465Y-94459468D01*
X111520585Y-94439571D01*
X111586625Y-94406410D01*
X111618375Y-94382280D01*
X111628535Y-94373390D01*
X111650654Y-94338465D01*
X111714895Y-94338465D01*
X111723150Y-94402600D01*
X111750455Y-94435620D01*
X111829195Y-94450860D01*
X112325765Y-94450860D01*
X112404505Y-94416570D01*
X112437525Y-94336560D01*
X112426049Y-94273060D01*
X112520075Y-94273060D01*
X112555635Y-94350530D01*
X112615642Y-94398869D01*
X112688985Y-94433397D01*
X112775662Y-94454114D01*
X112875675Y-94461020D01*
X112967194Y-94452090D01*
X113052522Y-94425301D01*
X113131659Y-94380653D01*
X113204605Y-94318145D01*
X113265724Y-94243017D01*
X113309380Y-94160506D01*
X113335574Y-94070614D01*
X113344305Y-93973340D01*
X113335415Y-93876542D01*
X113308745Y-93788079D01*
X113264295Y-93707950D01*
X113202065Y-93636155D01*
X113127770Y-93576981D01*
X113047125Y-93534714D01*
X112960130Y-93509353D01*
X112866785Y-93500900D01*
X112768713Y-93511907D01*
X112674309Y-93544927D01*
X112583575Y-93599960D01*
X112549285Y-93656475D01*
X112578495Y-93728230D01*
X112625802Y-93778713D01*
X112668665Y-93795540D01*
X112746135Y-93760615D01*
X112804555Y-93734421D01*
X112873135Y-93725690D01*
X112964257Y-93742676D01*
X113044585Y-93793635D01*
X113100783Y-93872057D01*
X113119515Y-93971435D01*
X113111048Y-94041003D01*
X113085648Y-94103233D01*
X113043315Y-94158125D01*
X112962035Y-94215751D01*
X112870595Y-94234960D01*
X112804237Y-94229245D01*
X112744865Y-94212100D01*
X112744865Y-94073670D01*
X112845195Y-94073670D01*
X112901075Y-94063510D01*
X112922665Y-94033665D01*
X112927745Y-93980325D01*
X112922030Y-93926350D01*
X112901075Y-93898410D01*
X112840115Y-93886980D01*
X112616595Y-93886980D01*
X112532775Y-93922540D01*
X112520075Y-93993660D01*
X112520075Y-94273060D01*
X112426049Y-94273060D01*
X112425619Y-94270679D01*
X112389900Y-94210195D01*
X112337354Y-94156538D01*
X112274965Y-94111135D01*
X112207655Y-94070177D01*
X112140345Y-94029855D01*
X112077956Y-93987151D01*
X112025410Y-93939050D01*
X111989691Y-93886663D01*
X111977785Y-93831100D01*
X111986675Y-93798715D01*
X112006360Y-93764425D01*
X112040015Y-93739660D01*
X112103515Y-93728230D01*
X112174000Y-93758075D01*
X112207655Y-93817130D01*
X112212735Y-93846340D01*
X112212735Y-93853960D01*
X112214640Y-93895870D01*
X112226705Y-93927620D01*
X112260995Y-93950480D01*
X112325765Y-93958100D01*
X112396567Y-93946035D01*
X112431175Y-93909840D01*
X112437525Y-93845070D01*
X112427012Y-93760051D01*
X112395474Y-93681099D01*
X112342910Y-93608215D01*
X112273342Y-93550007D01*
X112190792Y-93515082D01*
X112095260Y-93503440D01*
X111999657Y-93515223D01*
X111916896Y-93550571D01*
X111846975Y-93609485D01*
X111794058Y-93683498D01*
X111762308Y-93764143D01*
X111751725Y-93851420D01*
X111759662Y-93921905D01*
X111783475Y-93988580D01*
X111818400Y-94047000D01*
X111859675Y-94092720D01*
X111948575Y-94162888D01*
X112027315Y-94205750D01*
X112059065Y-94218450D01*
X112059065Y-94224800D01*
X111826655Y-94224800D01*
X111752360Y-94236865D01*
X111722515Y-94273695D01*
X111714895Y-94338465D01*
X111650654Y-94338465D01*
X111676795Y-94297190D01*
X111629805Y-94214640D01*
X111556145Y-94172730D01*
X111471055Y-94213370D01*
X111391680Y-94240040D01*
X111307860Y-94215910D01*
X111280555Y-94149235D01*
X111310400Y-94081925D01*
X111378345Y-94057160D01*
X111439305Y-94080020D01*
X111508520Y-94109230D01*
X111588530Y-94085100D01*
X111647585Y-94046365D01*
X111661555Y-94015250D01*
X111655205Y-93955877D01*
X111636155Y-93810780D01*
X111616788Y-93667905D01*
X111609485Y-93615200D01*
X111600595Y-93588530D01*
X111582180Y-93554240D01*
X111549160Y-93526935D01*
X111497725Y-93514870D01*
X111304685Y-93516140D01*
X111185305Y-93516140D01*
X111140855Y-93518045D01*
X111107835Y-93530110D01*
X111082117Y-93564400D01*
X111073545Y-93631710D01*
X111081482Y-93692987D01*
X111105295Y-93724420D01*
X111136410Y-93736485D01*
X111177685Y-93738390D01*
X111399935Y-93738390D01*
X111412635Y-93834910D01*
X111368185Y-93832370D01*
X111290433Y-93842459D01*
X111218043Y-93872728D01*
X111151015Y-93923175D01*
X111097393Y-93988227D01*
X111065219Y-94062311D01*
X111054495Y-94145425D01*
X110789912Y-94145425D01*
X110789912Y-93236317D01*
G37*
%TO.C,kibuzzard-636A321D*%
G36*
X102041617Y-88156952D02*
G01*
X104958383Y-88156952D01*
X104958383Y-89650048D01*
X102041617Y-89650048D01*
X102041617Y-89073045D01*
X102306200Y-89073045D01*
X102317489Y-89158347D01*
X102351356Y-89233065D01*
X102407800Y-89297200D01*
X102481319Y-89346236D01*
X102566409Y-89375658D01*
X102663070Y-89385465D01*
X102759026Y-89375587D01*
X102843692Y-89345954D01*
X102917070Y-89296565D01*
X102952947Y-89256878D01*
X102984380Y-89206395D01*
X102998350Y-89173375D01*
X103000890Y-89160675D01*
X103014860Y-89092095D01*
X103004131Y-89073045D01*
X103078360Y-89073045D01*
X103089649Y-89158347D01*
X103123516Y-89233065D01*
X103179960Y-89297200D01*
X103253479Y-89346236D01*
X103338569Y-89375658D01*
X103435230Y-89385465D01*
X103531186Y-89375587D01*
X103615852Y-89345954D01*
X103689230Y-89296565D01*
X103725107Y-89256878D01*
X103756540Y-89206395D01*
X103761913Y-89193695D01*
X103869570Y-89193695D01*
X103905130Y-89271165D01*
X103965137Y-89319504D01*
X104038480Y-89354032D01*
X104125157Y-89374749D01*
X104225170Y-89381655D01*
X104316689Y-89372725D01*
X104402017Y-89345936D01*
X104481154Y-89301288D01*
X104554100Y-89238780D01*
X104615219Y-89163652D01*
X104658875Y-89081141D01*
X104685069Y-88991249D01*
X104693800Y-88893975D01*
X104684910Y-88797177D01*
X104658240Y-88708714D01*
X104613790Y-88628585D01*
X104551560Y-88556790D01*
X104477265Y-88497616D01*
X104396620Y-88455349D01*
X104309625Y-88429988D01*
X104216280Y-88421535D01*
X104118208Y-88432542D01*
X104023804Y-88465562D01*
X103933070Y-88520595D01*
X103898780Y-88577110D01*
X103927990Y-88648865D01*
X103975297Y-88699347D01*
X104018160Y-88716175D01*
X104095630Y-88681250D01*
X104154050Y-88655056D01*
X104222630Y-88646325D01*
X104313752Y-88663311D01*
X104394080Y-88714270D01*
X104450277Y-88792692D01*
X104469010Y-88892070D01*
X104460543Y-88961638D01*
X104435143Y-89023868D01*
X104392810Y-89078760D01*
X104311530Y-89136386D01*
X104220090Y-89155595D01*
X104153732Y-89149880D01*
X104094360Y-89132735D01*
X104094360Y-88994305D01*
X104194690Y-88994305D01*
X104250570Y-88984145D01*
X104272160Y-88954300D01*
X104277240Y-88900960D01*
X104271525Y-88846985D01*
X104250570Y-88819045D01*
X104189610Y-88807615D01*
X103966090Y-88807615D01*
X103882270Y-88843175D01*
X103869570Y-88914295D01*
X103869570Y-89193695D01*
X103761913Y-89193695D01*
X103770510Y-89173375D01*
X103773050Y-89160675D01*
X103787020Y-89092095D01*
X103755905Y-89036850D01*
X103662560Y-89018435D01*
X103595250Y-89031135D01*
X103557150Y-89097175D01*
X103487300Y-89158135D01*
X103433960Y-89165755D01*
X103375540Y-89158929D01*
X103334900Y-89138450D01*
X103303150Y-89076855D01*
X103334265Y-89016530D01*
X103407925Y-88990495D01*
X103465710Y-88987955D01*
X103498730Y-88975255D01*
X103524447Y-88942552D01*
X103533020Y-88877465D01*
X103521272Y-88806662D01*
X103486030Y-88772055D01*
X103419990Y-88765705D01*
X103347600Y-88753322D01*
X103323470Y-88716175D01*
X103348870Y-88665375D01*
X103419355Y-88641245D01*
X103491110Y-88656485D01*
X103524130Y-88686965D01*
X103531750Y-88702205D01*
X103567310Y-88749830D01*
X103615570Y-88765705D01*
X103685420Y-88742845D01*
X103733045Y-88703157D01*
X103748920Y-88657755D01*
X103719710Y-88571395D01*
X103691770Y-88531390D01*
X103639065Y-88481225D01*
X103555245Y-88441855D01*
X103498254Y-88428520D01*
X103435230Y-88424075D01*
X103338428Y-88433953D01*
X103256301Y-88463586D01*
X103188850Y-88512975D01*
X103138756Y-88574711D01*
X103108699Y-88641386D01*
X103098680Y-88713000D01*
X103109687Y-88780239D01*
X103142707Y-88833791D01*
X103197740Y-88873655D01*
X103197740Y-88882545D01*
X103160275Y-88909850D01*
X103120270Y-88951125D01*
X103088837Y-89008275D01*
X103078360Y-89073045D01*
X103004131Y-89073045D01*
X102983745Y-89036850D01*
X102890400Y-89018435D01*
X102823090Y-89031135D01*
X102784990Y-89097175D01*
X102715140Y-89158135D01*
X102661800Y-89165755D01*
X102603380Y-89158929D01*
X102562740Y-89138450D01*
X102530990Y-89076855D01*
X102562105Y-89016530D01*
X102635765Y-88990495D01*
X102693550Y-88987955D01*
X102726570Y-88975255D01*
X102752287Y-88942552D01*
X102760860Y-88877465D01*
X102749112Y-88806662D01*
X102713870Y-88772055D01*
X102647830Y-88765705D01*
X102575440Y-88753322D01*
X102551310Y-88716175D01*
X102576710Y-88665375D01*
X102647195Y-88641245D01*
X102718950Y-88656485D01*
X102751970Y-88686965D01*
X102759590Y-88702205D01*
X102795150Y-88749830D01*
X102843410Y-88765705D01*
X102913260Y-88742845D01*
X102960885Y-88703157D01*
X102976760Y-88657755D01*
X102947550Y-88571395D01*
X102919610Y-88531390D01*
X102866905Y-88481225D01*
X102783085Y-88441855D01*
X102726094Y-88428520D01*
X102663070Y-88424075D01*
X102566268Y-88433953D01*
X102484141Y-88463586D01*
X102416690Y-88512975D01*
X102366596Y-88574711D01*
X102336539Y-88641386D01*
X102326520Y-88713000D01*
X102337527Y-88780239D01*
X102370547Y-88833791D01*
X102425580Y-88873655D01*
X102425580Y-88882545D01*
X102388115Y-88909850D01*
X102348110Y-88951125D01*
X102316677Y-89008275D01*
X102306200Y-89073045D01*
X102041617Y-89073045D01*
X102041617Y-88156952D01*
G37*
%TO.C,kibuzzard-6369B91F*%
G36*
X84063842Y-109865992D02*
G01*
X86936158Y-109865992D01*
X86936158Y-111354008D01*
X84063842Y-111354008D01*
X84063842Y-110969410D01*
X84328425Y-110969410D01*
X84379225Y-111045610D01*
X84462410Y-111089425D01*
X84540515Y-111036085D01*
X84819915Y-110717315D01*
X84819915Y-110964965D01*
X84821820Y-111009415D01*
X84833885Y-111042435D01*
X84867540Y-111068153D01*
X84932945Y-111076725D01*
X85003430Y-111064660D01*
X85037085Y-111028465D01*
X85042539Y-110982110D01*
X85127255Y-110982110D01*
X85133605Y-111036085D01*
X85155195Y-111064025D01*
X85221235Y-111076725D01*
X85678435Y-111076725D01*
X85748920Y-111064660D01*
X85782575Y-111028465D01*
X85790195Y-110963695D01*
X85790195Y-110293770D01*
X85872745Y-110293770D01*
X85899415Y-110364255D01*
X85946405Y-110415690D01*
X85988315Y-110432835D01*
X86053085Y-110404895D01*
X86115315Y-110372510D01*
X86195325Y-110361715D01*
X86277240Y-110376002D01*
X86357885Y-110418865D01*
X86421385Y-110497605D01*
X86440435Y-110551739D01*
X86446785Y-110612540D01*
X86440435Y-110673341D01*
X86421385Y-110727475D01*
X86356615Y-110807485D01*
X86277558Y-110849395D01*
X86195325Y-110863365D01*
X86121030Y-110853205D01*
X86070865Y-110832885D01*
X86048005Y-110816375D01*
X85987045Y-110790975D01*
X85946088Y-110808755D01*
X85901955Y-110862095D01*
X85874015Y-110933215D01*
X85891160Y-110977665D01*
X85931165Y-111009415D01*
X85974980Y-111036085D01*
X86060705Y-111069105D01*
X86124364Y-111084345D01*
X86185800Y-111089425D01*
X86246443Y-111085456D01*
X86307720Y-111073550D01*
X86370268Y-111052278D01*
X86434720Y-111020210D01*
X86496791Y-110978618D01*
X86552195Y-110928770D01*
X86599661Y-110867175D01*
X86637920Y-110790340D01*
X86663161Y-110702234D01*
X86671575Y-110606825D01*
X86663320Y-110512369D01*
X86638555Y-110427120D01*
X86600931Y-110353460D01*
X86554100Y-110293770D01*
X86499014Y-110245351D01*
X86436625Y-110205505D01*
X86353511Y-110167405D01*
X86270114Y-110144545D01*
X86186435Y-110136925D01*
X86126269Y-110141529D01*
X86065150Y-110155340D01*
X85971805Y-110192805D01*
X85941325Y-110210585D01*
X85905765Y-110233445D01*
X85872745Y-110293770D01*
X85790195Y-110293770D01*
X85790195Y-110257575D01*
X85788290Y-110213760D01*
X85776225Y-110180105D01*
X85742570Y-110154387D01*
X85677165Y-110145815D01*
X85606363Y-110157563D01*
X85571755Y-110192805D01*
X85565405Y-110258845D01*
X85565405Y-110888765D01*
X85219965Y-110888765D01*
X85159005Y-110898290D01*
X85133605Y-110928135D01*
X85127255Y-110982110D01*
X85042539Y-110982110D01*
X85044705Y-110963695D01*
X85044705Y-110257575D01*
X85042800Y-110213760D01*
X85030735Y-110180105D01*
X84997080Y-110154387D01*
X84931675Y-110145815D01*
X84860873Y-110157563D01*
X84826265Y-110192805D01*
X84819915Y-110258845D01*
X84819915Y-110501415D01*
X84753469Y-110426485D01*
X84692305Y-110357143D01*
X84636425Y-110293389D01*
X84585829Y-110235223D01*
X84540515Y-110182645D01*
X84463045Y-110130575D01*
X84379225Y-110174390D01*
X84328425Y-110250590D01*
X84366525Y-110327425D01*
X84408435Y-110373939D01*
X84460505Y-110428390D01*
X84522735Y-110490779D01*
X84595125Y-110561105D01*
X84645925Y-110609365D01*
X84555834Y-110696916D01*
X84479873Y-110772877D01*
X84418039Y-110837251D01*
X84370335Y-110890035D01*
X84328425Y-110969410D01*
X84063842Y-110969410D01*
X84063842Y-109865992D01*
G37*
%TO.C,kibuzzard-6369BB69*%
G36*
X111460260Y-89144800D02*
G01*
X111337070Y-89144800D01*
X111250075Y-89127814D01*
X111171970Y-89076855D01*
X111116725Y-89000179D01*
X111098310Y-88906040D01*
X111116249Y-88811584D01*
X111170065Y-88733955D01*
X111248011Y-88682044D01*
X111338340Y-88664740D01*
X111460260Y-88664740D01*
X111460260Y-89144800D01*
G37*
G36*
X110608937Y-88158857D02*
G01*
X113789863Y-88158857D01*
X113789863Y-89648143D01*
X110608937Y-89648143D01*
X110608937Y-88899055D01*
X110873520Y-88899055D01*
X110882053Y-88992440D01*
X110907651Y-89078919D01*
X110950315Y-89158492D01*
X111010045Y-89231160D01*
X111081919Y-89291723D01*
X111161016Y-89334983D01*
X111247337Y-89360938D01*
X111340880Y-89369590D01*
X111573290Y-89369590D01*
X111636155Y-89361653D01*
X111669810Y-89337840D01*
X111684574Y-89259100D01*
X111786650Y-89259100D01*
X111788555Y-89303550D01*
X111800620Y-89336570D01*
X111834275Y-89362288D01*
X111899680Y-89370860D01*
X111968260Y-89363240D01*
X112000010Y-89339110D01*
X112089827Y-89219448D01*
X112168779Y-89114461D01*
X112236865Y-89024150D01*
X112294086Y-88948514D01*
X112340441Y-88887554D01*
X112375930Y-88841270D01*
X112375930Y-89259100D01*
X112377835Y-89303550D01*
X112389900Y-89336570D01*
X112423555Y-89362288D01*
X112488960Y-89370860D01*
X112552460Y-89362288D01*
X112585480Y-89336570D01*
X112597545Y-89302280D01*
X112599450Y-89257830D01*
X112599450Y-89195600D01*
X112701050Y-89195600D01*
X112736610Y-89273070D01*
X112796617Y-89321409D01*
X112869960Y-89355937D01*
X112956638Y-89376654D01*
X113056650Y-89383560D01*
X113148169Y-89374630D01*
X113233497Y-89347841D01*
X113312634Y-89303193D01*
X113385580Y-89240685D01*
X113446699Y-89165557D01*
X113490355Y-89083046D01*
X113516549Y-88993154D01*
X113525280Y-88895880D01*
X113516390Y-88799082D01*
X113489720Y-88710619D01*
X113445270Y-88630490D01*
X113383040Y-88558695D01*
X113308745Y-88499521D01*
X113228100Y-88457254D01*
X113141105Y-88431893D01*
X113047760Y-88423440D01*
X112949688Y-88434447D01*
X112855284Y-88467467D01*
X112764550Y-88522500D01*
X112730260Y-88579015D01*
X112759470Y-88650770D01*
X112806777Y-88701253D01*
X112849640Y-88718080D01*
X112927110Y-88683155D01*
X112985530Y-88656961D01*
X113054110Y-88648230D01*
X113145233Y-88665216D01*
X113225560Y-88716175D01*
X113281758Y-88794597D01*
X113300490Y-88893975D01*
X113292023Y-88963543D01*
X113266623Y-89025773D01*
X113224290Y-89080665D01*
X113143010Y-89138291D01*
X113051570Y-89157500D01*
X112985212Y-89151785D01*
X112925840Y-89134640D01*
X112925840Y-88996210D01*
X113026170Y-88996210D01*
X113082050Y-88986050D01*
X113103640Y-88956205D01*
X113108720Y-88902865D01*
X113103005Y-88848890D01*
X113082050Y-88820950D01*
X113021090Y-88809520D01*
X112797570Y-88809520D01*
X112713750Y-88845080D01*
X112701050Y-88916200D01*
X112701050Y-89195600D01*
X112599450Y-89195600D01*
X112599450Y-88549170D01*
X112587385Y-88478685D01*
X112551190Y-88448840D01*
X112488960Y-88441220D01*
X112428635Y-88448205D01*
X112397520Y-88464080D01*
X112368310Y-88497100D01*
X112283926Y-88611718D01*
X112209419Y-88712577D01*
X112144790Y-88799678D01*
X112090039Y-88873020D01*
X112045166Y-88932604D01*
X112010170Y-88978430D01*
X112010170Y-88549170D01*
X111998105Y-88478685D01*
X111961910Y-88448840D01*
X111901585Y-88441220D01*
X111843165Y-88447570D01*
X111810145Y-88462810D01*
X111794270Y-88489480D01*
X111786650Y-88554250D01*
X111786650Y-89259100D01*
X111684574Y-89259100D01*
X111685050Y-89256560D01*
X111685050Y-88550440D01*
X111683145Y-88505990D01*
X111671080Y-88472970D01*
X111637425Y-88447252D01*
X111572020Y-88438680D01*
X111337070Y-88439950D01*
X111247773Y-88448245D01*
X111164033Y-88473129D01*
X111085848Y-88514602D01*
X111013220Y-88572665D01*
X110952101Y-88642832D01*
X110908445Y-88720620D01*
X110882251Y-88806028D01*
X110873520Y-88899055D01*
X110608937Y-88899055D01*
X110608937Y-88158857D01*
G37*
%TO.C,kibuzzard-636A31DF*%
G36*
X101997802Y-98318222D02*
G01*
X105002198Y-98318222D01*
X105002198Y-99808778D01*
X101997802Y-99808778D01*
X101997802Y-99231775D01*
X102262385Y-99231775D01*
X102273674Y-99317077D01*
X102307541Y-99391795D01*
X102363985Y-99455930D01*
X102437504Y-99504966D01*
X102522594Y-99534388D01*
X102619255Y-99544195D01*
X102715211Y-99534317D01*
X102799877Y-99504684D01*
X102873255Y-99455295D01*
X102909133Y-99415608D01*
X102940565Y-99365125D01*
X102954535Y-99332105D01*
X102957075Y-99319405D01*
X102971045Y-99250825D01*
X102939930Y-99195580D01*
X102846585Y-99177165D01*
X102779275Y-99189865D01*
X102741175Y-99255905D01*
X102671325Y-99316865D01*
X102617985Y-99324485D01*
X102559565Y-99317659D01*
X102518925Y-99297180D01*
X102487175Y-99235585D01*
X102518290Y-99175260D01*
X102591950Y-99149225D01*
X102649735Y-99146685D01*
X102682755Y-99133985D01*
X102708473Y-99101283D01*
X102717045Y-99036195D01*
X102705297Y-98965393D01*
X102670055Y-98930785D01*
X102604015Y-98924435D01*
X102531625Y-98912052D01*
X102507495Y-98874905D01*
X102532895Y-98824105D01*
X102603380Y-98799975D01*
X102675135Y-98815215D01*
X102708155Y-98845695D01*
X102715775Y-98860935D01*
X102751335Y-98908560D01*
X102799595Y-98924435D01*
X102869445Y-98901575D01*
X102917070Y-98861887D01*
X102932945Y-98816485D01*
X102903735Y-98730125D01*
X102877125Y-98692025D01*
X103021845Y-98692025D01*
X103040895Y-98752985D01*
X103391415Y-99464185D01*
X103433960Y-99509270D01*
X103493015Y-99526415D01*
X103505715Y-99526415D01*
X103566040Y-99509270D01*
X103608585Y-99464185D01*
X103723130Y-99231775D01*
X104028955Y-99231775D01*
X104040244Y-99317077D01*
X104074111Y-99391795D01*
X104130555Y-99455930D01*
X104204074Y-99504966D01*
X104289164Y-99534388D01*
X104385825Y-99544195D01*
X104481781Y-99534317D01*
X104566447Y-99504684D01*
X104639825Y-99455295D01*
X104675703Y-99415608D01*
X104707135Y-99365125D01*
X104721105Y-99332105D01*
X104723645Y-99319405D01*
X104737615Y-99250825D01*
X104706500Y-99195580D01*
X104613155Y-99177165D01*
X104545845Y-99189865D01*
X104507745Y-99255905D01*
X104437895Y-99316865D01*
X104384555Y-99324485D01*
X104326135Y-99317659D01*
X104285495Y-99297180D01*
X104253745Y-99235585D01*
X104284860Y-99175260D01*
X104358520Y-99149225D01*
X104416305Y-99146685D01*
X104449325Y-99133985D01*
X104475042Y-99101283D01*
X104483615Y-99036195D01*
X104471868Y-98965393D01*
X104436625Y-98930785D01*
X104370585Y-98924435D01*
X104298195Y-98912052D01*
X104274065Y-98874905D01*
X104299465Y-98824105D01*
X104369950Y-98799975D01*
X104441705Y-98815215D01*
X104474725Y-98845695D01*
X104482345Y-98860935D01*
X104517905Y-98908560D01*
X104566165Y-98924435D01*
X104636015Y-98901575D01*
X104683640Y-98861887D01*
X104699515Y-98816485D01*
X104670305Y-98730125D01*
X104642365Y-98690120D01*
X104589660Y-98639955D01*
X104505840Y-98600585D01*
X104448849Y-98587250D01*
X104385825Y-98582805D01*
X104289023Y-98592683D01*
X104206896Y-98622316D01*
X104139445Y-98671705D01*
X104089351Y-98733441D01*
X104059294Y-98800116D01*
X104049275Y-98871730D01*
X104060282Y-98938969D01*
X104093302Y-98992521D01*
X104148335Y-99032385D01*
X104148335Y-99041275D01*
X104110870Y-99068580D01*
X104070865Y-99109855D01*
X104039433Y-99167005D01*
X104028955Y-99231775D01*
X103723130Y-99231775D01*
X103959105Y-98752985D01*
X103978155Y-98692025D01*
X103959422Y-98649480D01*
X103903225Y-98610745D01*
X103839090Y-98589155D01*
X103805435Y-98594235D01*
X103783845Y-98612015D01*
X103762890Y-98645670D01*
X103745904Y-98681230D01*
X103713995Y-98751080D01*
X103673196Y-98840774D01*
X103629540Y-98935865D01*
X103585725Y-99030956D01*
X103544450Y-99120650D01*
X103513176Y-99188436D01*
X103499365Y-99217805D01*
X103245365Y-98661545D01*
X103227585Y-98623445D01*
X103171705Y-98589155D01*
X103096775Y-98610745D01*
X103040577Y-98649480D01*
X103021845Y-98692025D01*
X102877125Y-98692025D01*
X102875795Y-98690120D01*
X102823090Y-98639955D01*
X102739270Y-98600585D01*
X102682279Y-98587250D01*
X102619255Y-98582805D01*
X102522453Y-98592683D01*
X102440326Y-98622316D01*
X102372875Y-98671705D01*
X102322781Y-98733441D01*
X102292724Y-98800116D01*
X102282705Y-98871730D01*
X102293712Y-98938969D01*
X102326732Y-98992521D01*
X102381765Y-99032385D01*
X102381765Y-99041275D01*
X102344300Y-99068580D01*
X102304295Y-99109855D01*
X102272862Y-99167005D01*
X102262385Y-99231775D01*
X101997802Y-99231775D01*
X101997802Y-98318222D01*
G37*
%TO.C,kibuzzard-636A4C5F*%
G36*
X115782262Y-114907583D02*
G01*
X115782262Y-114493140D01*
X116046845Y-114493140D01*
X116068435Y-114568070D01*
X116107170Y-114624267D01*
X116149715Y-114643000D01*
X116210675Y-114623950D01*
X116921875Y-114273430D01*
X116966960Y-114230885D01*
X116984105Y-114171830D01*
X116984105Y-114159130D01*
X116966960Y-114098805D01*
X116921875Y-114056260D01*
X116210675Y-113705740D01*
X116149715Y-113686690D01*
X116107170Y-113705422D01*
X116068435Y-113761620D01*
X116046845Y-113825755D01*
X116051925Y-113859410D01*
X116069705Y-113881000D01*
X116103360Y-113901955D01*
X116138920Y-113918941D01*
X116208770Y-113950850D01*
X116298464Y-113991649D01*
X116393555Y-114035305D01*
X116488646Y-114079120D01*
X116578340Y-114120395D01*
X116646126Y-114151669D01*
X116675495Y-114165480D01*
X116119235Y-114419480D01*
X116081135Y-114437260D01*
X116046845Y-114493140D01*
X115782262Y-114493140D01*
X115782262Y-113192660D01*
X116051925Y-113192660D01*
X116053195Y-113385700D01*
X116053195Y-113505080D01*
X116055100Y-113549530D01*
X116067165Y-113582550D01*
X116101455Y-113608267D01*
X116168765Y-113616840D01*
X116230042Y-113608903D01*
X116261475Y-113585090D01*
X116273540Y-113553975D01*
X116275445Y-113512700D01*
X116275445Y-113290450D01*
X116371965Y-113277750D01*
X116369425Y-113322200D01*
X116379514Y-113399952D01*
X116409783Y-113472342D01*
X116460230Y-113539370D01*
X116525282Y-113592992D01*
X116599366Y-113625166D01*
X116682480Y-113635890D01*
X116766018Y-113625730D01*
X116841371Y-113595250D01*
X116908540Y-113544450D01*
X116961104Y-113478551D01*
X116992642Y-113402774D01*
X117003155Y-113317120D01*
X116996523Y-113240920D01*
X116976626Y-113169800D01*
X116943465Y-113103760D01*
X116919335Y-113072010D01*
X116910445Y-113061850D01*
X116834245Y-113013590D01*
X116751695Y-113060580D01*
X116709785Y-113134240D01*
X116750425Y-113219330D01*
X116777095Y-113298705D01*
X116752965Y-113382525D01*
X116686290Y-113409830D01*
X116618980Y-113379985D01*
X116594215Y-113312040D01*
X116617075Y-113251080D01*
X116646285Y-113181865D01*
X116622155Y-113101855D01*
X116583420Y-113042800D01*
X116552305Y-113028830D01*
X116492933Y-113035180D01*
X116347835Y-113054230D01*
X116204960Y-113073597D01*
X116152255Y-113080900D01*
X116125585Y-113089790D01*
X116091295Y-113108205D01*
X116063990Y-113141225D01*
X116051925Y-113192660D01*
X115782262Y-113192660D01*
X115782262Y-112660530D01*
X116335135Y-112660530D01*
X116342120Y-112718315D01*
X116365615Y-112749430D01*
X116435465Y-112760860D01*
X116537065Y-112760860D01*
X116537065Y-112863730D01*
X116547860Y-112928500D01*
X116580245Y-112955805D01*
X116638030Y-112962790D01*
X116695815Y-112956440D01*
X116726295Y-112934850D01*
X116737725Y-112870080D01*
X116737725Y-112760860D01*
X116840595Y-112760860D01*
X116905365Y-112750065D01*
X116932670Y-112717680D01*
X116939655Y-112659895D01*
X116932670Y-112602110D01*
X116909175Y-112571630D01*
X116839325Y-112560200D01*
X116737725Y-112560200D01*
X116737725Y-112449710D01*
X116727565Y-112388750D01*
X116695180Y-112363350D01*
X116637395Y-112357000D01*
X116579610Y-112363985D01*
X116548495Y-112388750D01*
X116537065Y-112458600D01*
X116537065Y-112560200D01*
X116434195Y-112560200D01*
X116369425Y-112570360D01*
X116342120Y-112602745D01*
X116335135Y-112660530D01*
X115782262Y-112660530D01*
X115782262Y-112092417D01*
X117267738Y-112092417D01*
X117267738Y-114907583D01*
X115782262Y-114907583D01*
G37*
%TO.C,kibuzzard-636A3210*%
G36*
X102040982Y-90696952D02*
G01*
X104959018Y-90696952D01*
X104959018Y-92190048D01*
X102040982Y-92190048D01*
X102040982Y-91613045D01*
X102305565Y-91613045D01*
X102316854Y-91698347D01*
X102350721Y-91773065D01*
X102407165Y-91837200D01*
X102480684Y-91886236D01*
X102565774Y-91915658D01*
X102662435Y-91925465D01*
X102758391Y-91915587D01*
X102843057Y-91885954D01*
X102916435Y-91836565D01*
X102950304Y-91799100D01*
X103065025Y-91799100D01*
X103073280Y-91863235D01*
X103100585Y-91896255D01*
X103179325Y-91911495D01*
X103675895Y-91911495D01*
X103754635Y-91877205D01*
X103787655Y-91797195D01*
X103776179Y-91733695D01*
X103870205Y-91733695D01*
X103905765Y-91811165D01*
X103965772Y-91859504D01*
X104039115Y-91894032D01*
X104125793Y-91914749D01*
X104225805Y-91921655D01*
X104317324Y-91912725D01*
X104402652Y-91885936D01*
X104481789Y-91841288D01*
X104554735Y-91778780D01*
X104615854Y-91703652D01*
X104659510Y-91621141D01*
X104685704Y-91531249D01*
X104694435Y-91433975D01*
X104685545Y-91337177D01*
X104658875Y-91248714D01*
X104614425Y-91168585D01*
X104552195Y-91096790D01*
X104477900Y-91037616D01*
X104397255Y-90995349D01*
X104310260Y-90969988D01*
X104216915Y-90961535D01*
X104118843Y-90972542D01*
X104024439Y-91005562D01*
X103933705Y-91060595D01*
X103899415Y-91117110D01*
X103928625Y-91188865D01*
X103975932Y-91239347D01*
X104018795Y-91256175D01*
X104096265Y-91221250D01*
X104154685Y-91195056D01*
X104223265Y-91186325D01*
X104314387Y-91203311D01*
X104394715Y-91254270D01*
X104450912Y-91332692D01*
X104469645Y-91432070D01*
X104461178Y-91501638D01*
X104435778Y-91563868D01*
X104393445Y-91618760D01*
X104312165Y-91676386D01*
X104220725Y-91695595D01*
X104154367Y-91689880D01*
X104094995Y-91672735D01*
X104094995Y-91534305D01*
X104195325Y-91534305D01*
X104251205Y-91524145D01*
X104272795Y-91494300D01*
X104277875Y-91440960D01*
X104272160Y-91386985D01*
X104251205Y-91359045D01*
X104190245Y-91347615D01*
X103966725Y-91347615D01*
X103882905Y-91383175D01*
X103870205Y-91454295D01*
X103870205Y-91733695D01*
X103776179Y-91733695D01*
X103775749Y-91731314D01*
X103740030Y-91670830D01*
X103687484Y-91617173D01*
X103625095Y-91571770D01*
X103557785Y-91530812D01*
X103490475Y-91490490D01*
X103428086Y-91447786D01*
X103375540Y-91399685D01*
X103339821Y-91347298D01*
X103327915Y-91291735D01*
X103336805Y-91259350D01*
X103356490Y-91225060D01*
X103390145Y-91200295D01*
X103453645Y-91188865D01*
X103524130Y-91218710D01*
X103557785Y-91277765D01*
X103562865Y-91306975D01*
X103562865Y-91314595D01*
X103564770Y-91356505D01*
X103576835Y-91388255D01*
X103611125Y-91411115D01*
X103675895Y-91418735D01*
X103746697Y-91406670D01*
X103781305Y-91370475D01*
X103787655Y-91305705D01*
X103777142Y-91220686D01*
X103745604Y-91141734D01*
X103693040Y-91068850D01*
X103623472Y-91010642D01*
X103540922Y-90975717D01*
X103445390Y-90964075D01*
X103349787Y-90975858D01*
X103267026Y-91011206D01*
X103197105Y-91070120D01*
X103144188Y-91144133D01*
X103112438Y-91224778D01*
X103101855Y-91312055D01*
X103109792Y-91382540D01*
X103133605Y-91449215D01*
X103168530Y-91507635D01*
X103209805Y-91553355D01*
X103298705Y-91623523D01*
X103377445Y-91666385D01*
X103409195Y-91679085D01*
X103409195Y-91685435D01*
X103176785Y-91685435D01*
X103102490Y-91697500D01*
X103072645Y-91734330D01*
X103065025Y-91799100D01*
X102950304Y-91799100D01*
X102952313Y-91796878D01*
X102983745Y-91746395D01*
X102997715Y-91713375D01*
X103000255Y-91700675D01*
X103014225Y-91632095D01*
X102983110Y-91576850D01*
X102889765Y-91558435D01*
X102822455Y-91571135D01*
X102784355Y-91637175D01*
X102714505Y-91698135D01*
X102661165Y-91705755D01*
X102602745Y-91698929D01*
X102562105Y-91678450D01*
X102530355Y-91616855D01*
X102561470Y-91556530D01*
X102635130Y-91530495D01*
X102692915Y-91527955D01*
X102725935Y-91515255D01*
X102751652Y-91482552D01*
X102760225Y-91417465D01*
X102748477Y-91346662D01*
X102713235Y-91312055D01*
X102647195Y-91305705D01*
X102574805Y-91293322D01*
X102550675Y-91256175D01*
X102576075Y-91205375D01*
X102646560Y-91181245D01*
X102718315Y-91196485D01*
X102751335Y-91226965D01*
X102758955Y-91242205D01*
X102794515Y-91289830D01*
X102842775Y-91305705D01*
X102912625Y-91282845D01*
X102960250Y-91243157D01*
X102976125Y-91197755D01*
X102946915Y-91111395D01*
X102918975Y-91071390D01*
X102866270Y-91021225D01*
X102782450Y-90981855D01*
X102725459Y-90968520D01*
X102662435Y-90964075D01*
X102565633Y-90973953D01*
X102483506Y-91003586D01*
X102416055Y-91052975D01*
X102365961Y-91114711D01*
X102335904Y-91181386D01*
X102325885Y-91253000D01*
X102336892Y-91320239D01*
X102369912Y-91373791D01*
X102424945Y-91413655D01*
X102424945Y-91422545D01*
X102387480Y-91449850D01*
X102347475Y-91491125D01*
X102316042Y-91548275D01*
X102305565Y-91613045D01*
X102040982Y-91613045D01*
X102040982Y-90696952D01*
G37*
%TO.C,kibuzzard-636A31F2*%
G36*
X102033997Y-95778857D02*
G01*
X104966003Y-95778857D01*
X104966003Y-97268143D01*
X102033997Y-97268143D01*
X102033997Y-96881005D01*
X102298580Y-96881005D01*
X102306835Y-96945140D01*
X102334140Y-96978160D01*
X102412880Y-96993400D01*
X102909450Y-96993400D01*
X102988190Y-96959110D01*
X103020424Y-96881005D01*
X103072010Y-96881005D01*
X103080265Y-96945140D01*
X103107570Y-96978160D01*
X103186310Y-96993400D01*
X103682880Y-96993400D01*
X103761620Y-96959110D01*
X103794640Y-96879100D01*
X103783164Y-96815600D01*
X103877190Y-96815600D01*
X103912750Y-96893070D01*
X103972757Y-96941409D01*
X104046100Y-96975937D01*
X104132777Y-96996654D01*
X104232790Y-97003560D01*
X104324309Y-96994630D01*
X104409637Y-96967841D01*
X104488774Y-96923193D01*
X104561720Y-96860685D01*
X104622839Y-96785557D01*
X104666495Y-96703046D01*
X104692689Y-96613154D01*
X104701420Y-96515880D01*
X104692530Y-96419082D01*
X104665860Y-96330619D01*
X104621410Y-96250490D01*
X104559180Y-96178695D01*
X104484885Y-96119521D01*
X104404240Y-96077254D01*
X104317245Y-96051893D01*
X104223900Y-96043440D01*
X104125828Y-96054447D01*
X104031424Y-96087467D01*
X103940690Y-96142500D01*
X103906400Y-96199015D01*
X103935610Y-96270770D01*
X103982917Y-96321253D01*
X104025780Y-96338080D01*
X104103250Y-96303155D01*
X104161670Y-96276961D01*
X104230250Y-96268230D01*
X104321372Y-96285216D01*
X104401700Y-96336175D01*
X104457897Y-96414597D01*
X104476630Y-96513975D01*
X104468163Y-96583543D01*
X104442763Y-96645773D01*
X104400430Y-96700665D01*
X104319150Y-96758291D01*
X104227710Y-96777500D01*
X104161352Y-96771785D01*
X104101980Y-96754640D01*
X104101980Y-96616210D01*
X104202310Y-96616210D01*
X104258190Y-96606050D01*
X104279780Y-96576205D01*
X104284860Y-96522865D01*
X104279145Y-96468890D01*
X104258190Y-96440950D01*
X104197230Y-96429520D01*
X103973710Y-96429520D01*
X103889890Y-96465080D01*
X103877190Y-96536200D01*
X103877190Y-96815600D01*
X103783164Y-96815600D01*
X103782734Y-96813219D01*
X103747015Y-96752735D01*
X103694469Y-96699078D01*
X103632080Y-96653675D01*
X103564770Y-96612718D01*
X103497460Y-96572395D01*
X103435071Y-96529691D01*
X103382525Y-96481590D01*
X103346806Y-96429203D01*
X103334900Y-96373640D01*
X103343790Y-96341255D01*
X103363475Y-96306965D01*
X103397130Y-96282200D01*
X103460630Y-96270770D01*
X103531115Y-96300615D01*
X103564770Y-96359670D01*
X103569850Y-96388880D01*
X103569850Y-96396500D01*
X103571755Y-96438410D01*
X103583820Y-96470160D01*
X103618110Y-96493020D01*
X103682880Y-96500640D01*
X103753682Y-96488575D01*
X103788290Y-96452380D01*
X103794640Y-96387610D01*
X103784127Y-96302591D01*
X103752589Y-96223639D01*
X103700025Y-96150755D01*
X103630457Y-96092547D01*
X103547907Y-96057622D01*
X103452375Y-96045980D01*
X103356772Y-96057763D01*
X103274011Y-96093111D01*
X103204090Y-96152025D01*
X103151173Y-96226038D01*
X103119423Y-96306683D01*
X103108840Y-96393960D01*
X103116777Y-96464445D01*
X103140590Y-96531120D01*
X103175515Y-96589540D01*
X103216790Y-96635260D01*
X103305690Y-96705428D01*
X103384430Y-96748290D01*
X103416180Y-96760990D01*
X103416180Y-96767340D01*
X103183770Y-96767340D01*
X103109475Y-96779405D01*
X103079630Y-96816235D01*
X103072010Y-96881005D01*
X103020424Y-96881005D01*
X103021210Y-96879100D01*
X103009304Y-96813219D01*
X102973585Y-96752735D01*
X102921039Y-96699078D01*
X102858650Y-96653675D01*
X102791340Y-96612718D01*
X102724030Y-96572395D01*
X102661641Y-96529691D01*
X102609095Y-96481590D01*
X102573376Y-96429203D01*
X102561470Y-96373640D01*
X102570360Y-96341255D01*
X102590045Y-96306965D01*
X102623700Y-96282200D01*
X102687200Y-96270770D01*
X102757685Y-96300615D01*
X102791340Y-96359670D01*
X102796420Y-96388880D01*
X102796420Y-96396500D01*
X102798325Y-96438410D01*
X102810390Y-96470160D01*
X102844680Y-96493020D01*
X102909450Y-96500640D01*
X102980252Y-96488575D01*
X103014860Y-96452380D01*
X103021210Y-96387610D01*
X103010697Y-96302591D01*
X102979159Y-96223639D01*
X102926595Y-96150755D01*
X102857027Y-96092547D01*
X102774477Y-96057622D01*
X102678945Y-96045980D01*
X102583342Y-96057763D01*
X102500581Y-96093111D01*
X102430660Y-96152025D01*
X102377743Y-96226038D01*
X102345993Y-96306683D01*
X102335410Y-96393960D01*
X102343347Y-96464445D01*
X102367160Y-96531120D01*
X102402085Y-96589540D01*
X102443360Y-96635260D01*
X102532260Y-96705428D01*
X102611000Y-96748290D01*
X102642750Y-96760990D01*
X102642750Y-96767340D01*
X102410340Y-96767340D01*
X102336045Y-96779405D01*
X102306200Y-96816235D01*
X102298580Y-96881005D01*
X102033997Y-96881005D01*
X102033997Y-95778857D01*
G37*
%TO.C,kibuzzard-636A3201*%
G36*
X102866588Y-93734262D02*
G01*
X102891035Y-93798080D01*
X102868810Y-93852690D01*
X102797055Y-93878090D01*
X102721490Y-93854595D01*
X102695455Y-93807605D01*
X102698630Y-93770775D01*
X102711965Y-93742200D01*
X102793245Y-93712990D01*
X102866588Y-93734262D01*
G37*
G36*
X102199732Y-93238857D02*
G01*
X104800268Y-93238857D01*
X104800268Y-94728143D01*
X102199732Y-94728143D01*
X102199732Y-93884440D01*
X102464315Y-93884440D01*
X102469801Y-93978268D01*
X102486261Y-94065694D01*
X102513693Y-94146720D01*
X102552097Y-94221346D01*
X102601475Y-94289570D01*
X102660352Y-94348092D01*
X102727256Y-94393608D01*
X102802186Y-94426120D01*
X102885142Y-94445628D01*
X102976125Y-94452130D01*
X102983745Y-94452130D01*
X103052325Y-94439430D01*
X103078995Y-94403552D01*
X103087535Y-94341640D01*
X103194565Y-94341640D01*
X103196470Y-94385455D01*
X103208535Y-94419110D01*
X103242190Y-94444827D01*
X103307595Y-94453400D01*
X103371412Y-94445145D01*
X103405385Y-94420380D01*
X103417450Y-94385455D01*
X103419355Y-94339100D01*
X103419355Y-94275600D01*
X103711455Y-94275600D01*
X103747015Y-94353070D01*
X103807022Y-94401409D01*
X103880365Y-94435937D01*
X103967042Y-94456654D01*
X104067055Y-94463560D01*
X104158574Y-94454630D01*
X104243902Y-94427841D01*
X104323039Y-94383193D01*
X104395985Y-94320685D01*
X104457104Y-94245557D01*
X104500760Y-94163046D01*
X104526954Y-94073154D01*
X104535685Y-93975880D01*
X104526795Y-93879082D01*
X104500125Y-93790619D01*
X104455675Y-93710490D01*
X104393445Y-93638695D01*
X104319150Y-93579521D01*
X104238505Y-93537254D01*
X104151510Y-93511893D01*
X104058165Y-93503440D01*
X103960093Y-93514447D01*
X103865689Y-93547467D01*
X103774955Y-93602500D01*
X103740665Y-93659015D01*
X103769875Y-93730770D01*
X103817182Y-93781253D01*
X103860045Y-93798080D01*
X103937515Y-93763155D01*
X103995935Y-93736961D01*
X104064515Y-93728230D01*
X104155637Y-93745216D01*
X104235965Y-93796175D01*
X104292162Y-93874597D01*
X104310895Y-93973975D01*
X104302428Y-94043543D01*
X104277028Y-94105773D01*
X104234695Y-94160665D01*
X104153415Y-94218291D01*
X104061975Y-94237500D01*
X103995617Y-94231785D01*
X103936245Y-94214640D01*
X103936245Y-94076210D01*
X104036575Y-94076210D01*
X104092455Y-94066050D01*
X104114045Y-94036205D01*
X104119125Y-93982865D01*
X104113410Y-93928890D01*
X104092455Y-93900950D01*
X104031495Y-93889520D01*
X103807975Y-93889520D01*
X103724155Y-93925080D01*
X103711455Y-93996200D01*
X103711455Y-94275600D01*
X103419355Y-94275600D01*
X103419355Y-93885710D01*
X103435865Y-93900950D01*
X103524765Y-93940320D01*
X103601600Y-93895870D01*
X103641605Y-93817130D01*
X103595885Y-93742200D01*
X103387605Y-93554240D01*
X103383795Y-93551700D01*
X103312040Y-93518680D01*
X103251715Y-93525030D01*
X103218695Y-93539635D01*
X103200915Y-93566940D01*
X103194565Y-93634250D01*
X103194565Y-94341640D01*
X103087535Y-94341640D01*
X103087885Y-94339100D01*
X103075820Y-94268615D01*
X103039625Y-94234960D01*
X102965965Y-94227340D01*
X102865000Y-94209560D01*
X102789435Y-94166380D01*
X102744667Y-94116850D01*
X102719585Y-94072400D01*
X102713235Y-94054620D01*
X102808485Y-94076210D01*
X102887578Y-94066967D01*
X102958909Y-94039239D01*
X103022480Y-93993025D01*
X103072222Y-93935240D01*
X103102067Y-93872798D01*
X103112015Y-93805700D01*
X103101855Y-93724843D01*
X103071375Y-93653300D01*
X103020575Y-93591070D01*
X102955241Y-93543092D01*
X102881157Y-93514306D01*
X102798325Y-93504710D01*
X102696584Y-93516493D01*
X102613187Y-93551841D01*
X102548135Y-93610755D01*
X102501568Y-93688296D01*
X102473628Y-93779524D01*
X102464315Y-93884440D01*
X102199732Y-93884440D01*
X102199732Y-93238857D01*
G37*
%TO.C,kibuzzard-636A3268*%
G36*
X110877542Y-95778857D02*
G01*
X113521258Y-95778857D01*
X113521258Y-97268143D01*
X110877542Y-97268143D01*
X110877542Y-96881640D01*
X111142125Y-96881640D01*
X111144030Y-96925455D01*
X111156095Y-96959110D01*
X111189750Y-96984827D01*
X111255155Y-96993400D01*
X111318972Y-96985145D01*
X111352945Y-96960380D01*
X111365010Y-96925455D01*
X111366837Y-96881005D01*
X111627265Y-96881005D01*
X111635520Y-96945140D01*
X111662825Y-96978160D01*
X111741565Y-96993400D01*
X112238135Y-96993400D01*
X112316875Y-96959110D01*
X112349895Y-96879100D01*
X112338419Y-96815600D01*
X112432445Y-96815600D01*
X112468005Y-96893070D01*
X112528012Y-96941409D01*
X112601355Y-96975937D01*
X112688033Y-96996654D01*
X112788045Y-97003560D01*
X112879564Y-96994630D01*
X112964892Y-96967841D01*
X113044029Y-96923193D01*
X113116975Y-96860685D01*
X113178094Y-96785557D01*
X113221750Y-96703046D01*
X113247944Y-96613154D01*
X113256675Y-96515880D01*
X113247785Y-96419082D01*
X113221115Y-96330619D01*
X113176665Y-96250490D01*
X113114435Y-96178695D01*
X113040140Y-96119521D01*
X112959495Y-96077254D01*
X112872500Y-96051893D01*
X112779155Y-96043440D01*
X112681083Y-96054447D01*
X112586679Y-96087467D01*
X112495945Y-96142500D01*
X112461655Y-96199015D01*
X112490865Y-96270770D01*
X112538172Y-96321253D01*
X112581035Y-96338080D01*
X112658505Y-96303155D01*
X112716925Y-96276961D01*
X112785505Y-96268230D01*
X112876627Y-96285216D01*
X112956955Y-96336175D01*
X113013152Y-96414597D01*
X113031885Y-96513975D01*
X113023418Y-96583543D01*
X112998018Y-96645773D01*
X112955685Y-96700665D01*
X112874405Y-96758291D01*
X112782965Y-96777500D01*
X112716607Y-96771785D01*
X112657235Y-96754640D01*
X112657235Y-96616210D01*
X112757565Y-96616210D01*
X112813445Y-96606050D01*
X112835035Y-96576205D01*
X112840115Y-96522865D01*
X112834400Y-96468890D01*
X112813445Y-96440950D01*
X112752485Y-96429520D01*
X112528965Y-96429520D01*
X112445145Y-96465080D01*
X112432445Y-96536200D01*
X112432445Y-96815600D01*
X112338419Y-96815600D01*
X112337989Y-96813219D01*
X112302270Y-96752735D01*
X112249724Y-96699078D01*
X112187335Y-96653675D01*
X112120025Y-96612718D01*
X112052715Y-96572395D01*
X111990326Y-96529691D01*
X111937780Y-96481590D01*
X111902061Y-96429203D01*
X111890155Y-96373640D01*
X111899045Y-96341255D01*
X111918730Y-96306965D01*
X111952385Y-96282200D01*
X112015885Y-96270770D01*
X112086370Y-96300615D01*
X112120025Y-96359670D01*
X112125105Y-96388880D01*
X112125105Y-96396500D01*
X112127010Y-96438410D01*
X112139075Y-96470160D01*
X112173365Y-96493020D01*
X112238135Y-96500640D01*
X112308938Y-96488575D01*
X112343545Y-96452380D01*
X112349895Y-96387610D01*
X112339382Y-96302591D01*
X112307844Y-96223639D01*
X112255280Y-96150755D01*
X112185712Y-96092547D01*
X112103162Y-96057622D01*
X112007630Y-96045980D01*
X111912027Y-96057763D01*
X111829266Y-96093111D01*
X111759345Y-96152025D01*
X111706428Y-96226038D01*
X111674678Y-96306683D01*
X111664095Y-96393960D01*
X111672032Y-96464445D01*
X111695845Y-96531120D01*
X111730770Y-96589540D01*
X111772045Y-96635260D01*
X111860945Y-96705428D01*
X111939685Y-96748290D01*
X111971435Y-96760990D01*
X111971435Y-96767340D01*
X111739025Y-96767340D01*
X111664730Y-96779405D01*
X111634885Y-96816235D01*
X111627265Y-96881005D01*
X111366837Y-96881005D01*
X111366915Y-96879100D01*
X111366915Y-96425710D01*
X111383425Y-96440950D01*
X111472325Y-96480320D01*
X111549160Y-96435870D01*
X111589165Y-96357130D01*
X111543445Y-96282200D01*
X111335165Y-96094240D01*
X111331355Y-96091700D01*
X111259600Y-96058680D01*
X111199275Y-96065030D01*
X111166255Y-96079635D01*
X111148475Y-96106940D01*
X111142125Y-96174250D01*
X111142125Y-96881640D01*
X110877542Y-96881640D01*
X110877542Y-95778857D01*
G37*
%TD*%
M02*
