M48
; DRILL file {KiCad (6.0.0)} date Tue Nov  8 21:37:48 2022
; FORMAT={-:-/ absolute / inch / decimal}
; #@! TF.CreationDate,2022-11-08T21:37:48+09:00
; #@! TF.GenerationSoftware,Kicad,Pcbnew,(6.0.0)
; #@! TF.FileFunction,Plated,1,2,PTH
FMAT,2
INCH
; #@! TA.AperFunction,Plated,PTH,ComponentDrill
T1C0.0276
; #@! TA.AperFunction,Plated,PTH,ComponentDrill
T2C0.0315
; #@! TA.AperFunction,Plated,PTH,ComponentDrill
T3C0.0394
%
G90
G05
T1
X4.2726Y-4.5974
X4.3514Y-4.5974
X4.4301Y-4.5974
X4.5089Y-4.5974
X4.5876Y-4.5974
T2
X3.2461Y-3.476
X3.2461Y-3.5547
X3.2461Y-3.6335
X3.2461Y-3.7122
X3.2461Y-3.7909
X3.2461Y-4.276
X3.2461Y-4.3547
X3.2461Y-4.4335
X3.2461Y-4.5122
X3.2461Y-4.5909
X3.5531Y-4.5965
X3.6319Y-4.5965
X4.7673Y-3.476
X4.7673Y-3.5547
X4.7673Y-3.6335
X4.7673Y-3.7122
X4.7673Y-3.7909
X4.7673Y-4.276
X4.7673Y-4.3547
X4.7673Y-4.4335
X4.7673Y-4.5122
X4.7673Y-4.5909
X4.8461Y-3.476
X4.8461Y-3.5547
X4.8461Y-3.6335
X4.8461Y-3.7122
X4.8461Y-3.7909
X4.8461Y-4.276
X4.8461Y-4.3547
X4.8461Y-4.4335
X4.8461Y-4.5122
X4.8461Y-4.5909
T3
X3.9461Y-3.5001
X3.9461Y-3.6001
X3.9461Y-3.7001
X3.9461Y-3.8001
X3.9461Y-3.9001
X4.5461Y-3.5001
X4.5461Y-3.6001
X4.5461Y-3.7001
X4.5461Y-3.8001
T3
G00X3.435Y-4.0827
M15
G01X3.435Y-3.9843
M16
G05
G00X3.5945Y-4.2264
M15
G01X3.5157Y-4.2264
M16
G05
G00X3.6713Y-3.9843
M15
G01X3.6713Y-4.0827
M16
G05
T0
M30
